<svg clip-rule="evenodd" fill-rule="evenodd" height="512" stroke-linejoin="round" fill="#ffffff"
    stroke-miterlimit="2" viewBox="0 0 48 48" width="512" xmlns="http://www.w3.org/2000/svg">
    <g transform="translate(-212 -424)">
        <g transform="translate(7.801 -119.977)">
            <g id="ngicon">
                <path
                    d="m232.268 586.885c-.014.274.085.541.274.74s.451.311.725.311h13.932c.275 0 .537-.112.725-.311.189-.199.288-.466.274-.74-.218-4.249-3.706-7.627-7.965-7.627-4.258 0-7.746 3.378-7.965 7.627zm2.144-.949c.614-2.677 2.987-4.678 5.821-4.678 2.835 0 5.208 2.001 5.822 4.678zm-6.284-4.983-.419.421c-.39.391-.388 1.025.003 1.414s1.025.388 1.414-.003l2.111-2.122c.389-.39.389-1.02 0-1.41l-2.111-2.122c-.389-.391-1.023-.392-1.414-.003s-.393 1.023-.003 1.414l.408.411h-11.944v-8.032c0-.552-.448-1-1-1-.551 0-1 .448-1 1v9.032c0 .552.448 1 1 1zm12.105-11.017c-2.167 0-3.905 1.707-3.905 3.782s1.738 3.781 3.905 3.781c2.168 0 3.906-1.706 3.906-3.781s-1.738-3.782-3.906-3.782zm0 2c1.04 0 1.906.786 1.906 1.782 0 .995-.866 1.781-1.906 1.781s-1.905-.786-1.905-1.781c0-.996.865-1.782 1.905-1.782zm-31.034-4.953h15.526c.552 0 1-.448 1-1v-11.343c0-.552-.448-1-1-1h-4.797v-4.622c0-.552-.448-1-1-1h-9.729c-.552 0-1 .448-1 1v16.965c0 .552.448 1 1 1zm21.884-10.03h8.965v8.971c0 .551.448 1 1 1s1-.449 1-1v-9.971c0-.552-.448-1-1-1h-9.969l.416-.418c.389-.391.388-1.025-.004-1.414-.391-.389-1.024-.388-1.414.003l-2.111 2.122c-.388.39-.388 1.02 0 1.41l2.111 2.122c.39.391 1.023.392 1.414.003.392-.389.393-1.023.004-1.414zm-7.358-1.313v9.343h-3.644v-9.343zm-5.797-5.622v14.965h-7.729v-14.965zm-4.491 8.415h1.411c.552 0 1-.448 1-1s-.448-1-1-1h-1.411c-.552 0-1 .448-1 1s.448 1 1 1zm0-4.254h1.411c.552 0 1-.448 1-1s-.448-1-1-1h-1.411c-.552 0-1 .448-1 1s.448 1 1 1z" />
            </g>
        </g>
    </g>
</svg>