<svg id="Layer_1"  height="25" viewBox="0 0 512 512" width="25" fill="#ffffff"
    xmlns="http://www.w3.org/2000/svg">
    <g>
        <g>
            <path
                d="m481.746 217.724-29.979-10.086c-3.924-1.319-8.18.79-9.5 4.717-1.321 3.926.791 8.18 4.717 9.5l12.287 4.134-372.75 175.293c-3.748 1.763-5.358 6.23-3.595 9.979 1.768 3.788 6.316 5.343 9.979 3.596l372.75-175.294-4.653 12.102c-1.486 3.866.442 8.205 4.309 9.691 3.766 1.478 8.208-.403 9.692-4.309l11.352-29.523c.733-1.908.657-4.033-.213-5.883-.871-1.851-2.459-3.266-4.396-3.917z" />
            <path
                d="m197.139 417.635h-48c-12.958 0-23.5 10.542-23.5 23.5v47.365c0 12.958 10.542 23.5 23.5 23.5h48c12.958 0 23.5-10.542 23.5-23.5v-47.365c0-12.958-10.542-23.5-23.5-23.5zm8.5 70.865c0 4.687-3.813 8.5-8.5 8.5h-48c-4.687 0-8.5-3.813-8.5-8.5v-47.365c0-4.687 3.813-8.5 8.5-8.5h48c4.687 0 8.5 3.813 8.5 8.5z" />
            <path
                d="m314.534 378.936h-48c-12.958 0-23.5 10.542-23.5 23.5v86.064c0 12.958 10.542 23.5 23.5 23.5h48c12.958 0 23.5-10.542 23.5-23.5v-86.064c0-12.958-10.542-23.5-23.5-23.5zm8.5 109.564c0 4.687-3.813 8.5-8.5 8.5h-48c-4.687 0-8.5-3.813-8.5-8.5v-86.064c0-4.687 3.813-8.5 8.5-8.5h48c4.687 0 8.5 3.813 8.5 8.5z" />
            <path
                d="m431.929 291.044h-48c-12.958 0-23.5 10.542-23.5 23.5v173.956c0 12.958 10.542 23.5 23.5 23.5h48c12.958 0 23.5-10.542 23.5-23.5v-21.167c-.344-9.931-14.66-9.923-15 0v21.167c0 4.687-3.813 8.5-8.5 8.5h-48c-4.687 0-8.5-3.813-8.5-8.5v-173.956c0-4.687 3.813-8.5 8.5-8.5h48c4.687 0 8.5 3.813 8.5 8.5v117.123c.344 9.931 14.66 9.923 15 0v-117.123c0-12.958-10.542-23.5-23.5-23.5z" />
            <path
                d="m460.623 0h-169.223c-14.827 0-26.889 12.062-26.889 26.889v60.275c0 14.827 12.062 26.89 26.889 26.89h57.946l16.42 30.795c2.021 3.79 5.944 6.146 10.239 6.146h.001c4.294 0 8.218-2.354 10.24-6.143l16.429-30.798h57.947c14.827 0 26.889-12.062 26.889-26.89v-60.275c.001-14.827-12.061-26.889-26.888-26.889zm11.889 87.164c0 6.556-5.333 11.89-11.889 11.89h-59.746c-4.441 0-8.499 2.435-10.588 6.352l-14.28 26.771-14.273-26.769c-2.09-3.919-6.147-6.354-10.589-6.354h-59.747c-6.556 0-11.889-5.334-11.889-11.89v-60.275c0-6.556 5.333-11.889 11.889-11.889h169.223c6.556 0 11.889 5.333 11.889 11.889z" />
            <path
                d="m304.226 40.167h43.77c9.931-.344 9.923-14.659 0-15h-43.77c-9.931.344-9.923 14.659 0 15z" />
            <path
                d="m363.012 73.887h-58.786c-9.931.344-9.923 14.659 0 15h58.786c9.931-.344 9.923-14.66 0-15z" />
            <path
                d="m379.178 49.526h-74.952c-9.931.344-9.923 14.659 0 15h74.952c9.931-.344 9.924-14.659 0-15z" />
            <path
                d="m441.854 26.255h-17.692c-9.027 0-16.371 7.344-16.371 16.371v30.67c0 9.027 7.344 16.371 16.371 16.371h17.692c9.027 0 16.371-7.344 16.371-16.371v-30.67c-.001-9.027-7.345-16.371-16.371-16.371zm1.37 47.041c0 .756-.615 1.371-1.371 1.371h-17.692c-.756 0-1.371-.615-1.371-1.371v-30.67c0-.756.615-1.371 1.371-1.371h17.692c.756 0 1.371.615 1.371 1.371z" />
            <path
                d="m146.162 319.189c22.935.082 46.666-6.948 66.051-19.567l34.088 13.83c3.637 1.476 7.813.676 10.645-2.039 2.827-2.71 3.801-6.842 2.483-10.526l-12.608-35.253c44.179-63.506 13.838-156.24-59.587-181.197-17.841-32.405-65.698-32.257-83.353.22-18.947 6.994-35.919 18.593-49.16 33.648-2.735 3.11-2.432 7.85.679 10.585 3.098 2.727 7.841 2.44 10.585-.679 8.975-10.205 19.911-18.605 32.097-24.725-.128 1.421-.204 2.858-.204 4.312v27.225c0 6.601 1.35 12.891 3.786 18.612-20.843 2.148-37.154 19.811-37.154 41.213v30.868c0 11.767 9.573 21.34 21.339 21.34h120.321c11.767 0 21.339-9.573 21.339-21.34v-30.868c0-21.675-16.733-39.504-37.958-41.277 2.451-5.747 3.811-12.067 3.811-18.7v-27.073c0-1.549-.08-3.08-.225-4.591 57.146 26.502 77.357 103.307 40.825 154.661-2.405 3.517-2.977 8.035-1.528 12.088l9.072 25.364-24.366-9.886c-4.12-1.672-8.787-1.221-12.483 1.206-6.912 4.541-14.406 8.29-22.274 11.143-26.922 9.758-56.104 8.317-82.167-4.063-51.084-22.98-75.11-87.264-51.766-137.993 3.675-9.232-9.434-14.978-13.735-6.029-26.654 57.9.777 131.347 59.065 157.572 16.7 7.928 34.519 11.919 52.382 11.919zm-.54-244.133c18.037 0 32.713 14.661 32.741 32.69h-65.483c.029-18.03 14.705-32.69 32.742-32.69zm-32.743 59.966v-12.276h65.485v12.125c-1.613 43.347-63.811 43.549-65.485.151zm73.2 33.392c14.575 0 26.433 11.858 26.433 26.434v30.868c0 3.496-2.844 6.34-6.339 6.34h-120.322c-3.496 0-6.339-2.844-6.339-6.34v-30.868c0-14.575 11.858-26.434 26.433-26.434h5.627c17.739 18.893 50.268 18.849 68.013 0z" />
            <path
                d="m121.646 206.777h-14c-9.931.344-9.923 14.659 0 15h14c9.931-.344 9.924-14.659 0-15z" />
            <path
                d="m170.491 275.167c9.931-.344 9.923-14.659 0-15h-45.844c-9.931.344-9.923 14.659 0 15z" />
        </g>
    </g>
</svg>