<svg id="Layer_1" enable-background="new 0 0 512 512" viewBox="0 0 512 512" fill="#ffffff"
    xmlns="http://www.w3.org/2000/svg">
    <path
        d="m458.17 77.07h-12.48l30.52-30.52c3.44-3.44 5.34-8.11 5.33-13.14-.01-5.43-2.29-10.8-6.23-14.72l-12.45-12.47c-.01-.01-.02-.02-.02-.02-7.94-7.9-20.45-8.28-27.87-.86l-57.51 57.52c-5.47-12.81-18.2-21.82-32.99-21.82h-187.94c-19.77 0-35.86 16.09-35.86 35.86v.17h-66.87c-21.21 0-38.47 17.26-38.47 38.47v292.62c0 21.21 17.26 38.47 38.47 38.47h151.42l-17.67 49.37h-33.46c-4.42 0-7.99 3.58-7.99 7.99s3.58 7.99 7.99 7.99h203.78c4.42 0 7.99-3.58 7.99-7.99s-3.58-7.99-7.99-7.99h-33.46l-17.64-49.38h151.39c21.23 0 38.49-17.26 38.49-38.47v-292.62c.01-21.21-17.26-38.46-38.48-38.46zm-326.82 226.07c2.01.79 4.09 1.17 6.14 1.17 4.6 0 9.08-1.92 12.37-5.51l41.92-46.14c.24-.26.31-.28.61-.28h152.08c19.77 0 35.86-16.09 35.86-35.86v-74.1l11.22-11.22h48.31v261.3h-367.72v-261.3h48.53v156.3c0 7.01 4.22 13.15 10.68 15.64zm235.65-169.99c-.21.19-.41.39-.6.6l-23.21 23.21-18.6-18.6 102.61-102.64 18.61 18.61zm-48.66 21.59 8.45 8.45-10.39 1.95zm133.22-137.21 12.45 12.48c.97.97 1.53 2.22 1.54 3.42 0 .53-.11 1.27-.65 1.81l-7.78 7.78-18.62-18.61 7.77-7.77c1.03-1.03 3.51-.87 5.29.89zm-314.9 59.37c0-10.96 8.91-19.87 19.87-19.87h187.94c10.66 0 19.37 8.45 19.83 19l-56.15 56.17c-1.45 1.39-2.43 3.19-2.84 5.22l-.02.1-6.05 32.47c-.67 3.35.4 6.83 2.87 9.33 1.99 2.05 4.7 3.17 7.5 3.17.59 0 1.19-.05 1.78-.15.04-.01.08-.01.12-.02l32.4-6.07c1.37-.23 3.28-.85 5.09-2.5.1-.09.19-.18.28-.27l15.07-15.07v58.12c0 10.96-8.91 19.87-19.87 19.87h-152.09c-4.79 0-9.2 1.96-12.44 5.51l-41.9 46.12c-.35.38-.6.33-.9.21-.37-.14-.49-.32-.49-.73zm170.78 419.1h-102.91l17.67-49.38h67.6zm173.23-87.85c0 12.39-10.1 22.48-22.51 22.48h-404.36c-12.4 0-22.48-10.08-22.48-22.48v-292.62c0-12.39 10.08-22.48 22.48-22.48h66.87v22.17h-56.52c-4.41 0-7.99 3.58-7.99 7.99v277.29c0 4.42 3.58 7.99 7.99 7.99h383.7c4.42 0 7.99-3.58 7.99-7.99v-277.29c0-4.42-3.58-7.99-7.99-7.99h-40.31l22.17-22.17h28.47c12.41 0 22.51 10.08 22.51 22.48v292.62zm-305.66-311.44c0-4.42 3.58-7.99 7.99-7.99h127.05c4.42 0 7.99 3.58 7.99 7.99s-3.58 7.99-7.99 7.99h-127.04c-4.42 0-8-3.57-8-7.99zm0 50c0-4.42 3.58-7.99 7.99-7.99h96.43c4.42 0 7.99 3.58 7.99 7.99s-3.58 7.99-7.99 7.99h-96.43c-4.41.01-7.99-3.57-7.99-7.99zm0 50.01c0-4.42 3.58-7.99 7.99-7.99h67.49c4.42 0 7.99 3.58 7.99 7.99s-3.58 7.99-7.99 7.99h-67.49c-4.41 0-7.99-3.58-7.99-7.99z" />
</svg>