<svg id="Layer_3" enable-background="new 0 0 100 100" viewBox="0 0 100 100" fill="#ffffff"
    xmlns="http://www.w3.org/2000/svg">
    <path
        d="m65.125 88.652c0 .924-.756 1.681-1.68 1.681h-13.445c-5.041 0-9.865-.939-14.318-2.637-1.84.617-3.805.956-5.849.956-10.201 0-18.486-8.302-18.486-18.486 0-2.047.338-4.013.954-5.854-1.696-4.452-2.634-9.273-2.634-14.312 0-3.446.437-6.857 1.294-10.168.218-.874 1.16-1.429 2.052-1.194.889.236 1.428 1.144 1.193 2.051-.773 3.008-1.177 6.15-1.177 9.31.006 3.452.498 6.792 1.394 9.966 3.312-4.991 8.979-8.286 15.412-8.286 2.588 0 5.074.521 7.428 1.546 0 .017 0 .017.016.017.84.37 1.228 1.361.857 2.219-.012.025-.029.046-.041.071-.396.771-1.362 1.127-2.176.786-1.933-.857-3.967-1.277-6.084-1.277-6.229.012-11.6 3.822-13.912 9.227-.696 1.628-1.113 3.4-1.195 5.256-.009.213-.017.427-.018.642.016 8.318 6.806 15.108 15.125 15.125.215-.001.429-.008.642-.018 1.856-.082 3.629-.499 5.256-1.196 5.405-2.313 9.215-7.684 9.227-13.912 0-1.815-.32-3.596-.942-5.294-.167-.42-.151-.874.035-1.277.172-.379.482-.678.867-.839.025-.01.047-.026.073-.035.859-.319 1.85.135 2.168.975.773 2.067 1.161 4.235 1.161 6.47 0 6.422-3.303 12.093-8.296 15.408 3.177.898 6.52 1.391 9.977 1.397h13.445c.921.001 1.677.758 1.677 1.682zm-50.987-53.19c.218.101.453.152.688.152.656 0 1.244-.37 1.53-.959 0-.017 0-.017 0-.017.387-.84.018-1.849-.822-2.235-.824-.369-1.85.018-2.235.84v.017c-.185.403-.202.84-.035 1.261.15.421.454.757.874.941zm4.207-14.054 3.887-.648c-2.028 1.929-3.863 4.059-5.474 6.384-.52.756-.337 1.815.437 2.336.285.201.606.302.942.302.555 0 1.075-.268 1.395-.74 1.523-2.202 3.265-4.208 5.198-6.017l-1.531 4.595c-.294.881.182 1.832 1.062 2.126.178.059.356.087.532.087.704 0 1.359-.446 1.594-1.15l3.275-9.826c.184-.365.227-.785.122-1.184-.025-.102-.059-.201-.103-.297-.021-.044-.047-.087-.073-.129-.02-.034-.035-.071-.058-.104-.012-.018-.028-.031-.04-.047-.028-.039-.047-.083-.078-.119-.383-.45-.979-.67-1.553-.566l-10.083 1.681c-.916.152-1.535 1.019-1.382 1.934.149.915 1.019 1.533 1.931 1.382zm65.243 58.565c.153.916-.466 1.782-1.382 1.934l-10.083 1.681c-.092.016-.184.023-.276.023-.41 0-.8-.157-1.107-.429-.017-.014-.032-.03-.048-.045-.04-.038-.085-.071-.122-.115-.023-.026-.035-.057-.055-.084-.024-.03-.053-.052-.075-.084-.04-.058-.068-.121-.099-.183-.003-.007-.008-.013-.011-.02-.047-.1-.084-.204-.111-.31-.11-.406-.069-.834.122-1.204l3.274-9.821c.294-.881 1.238-1.358 2.125-1.063.88.294 1.356 1.245 1.062 2.126l-1.538 4.615c7.412-6.941 11.708-16.684 11.708-26.994 0-10.696-4.57-20.342-11.855-27.098 1.139 2.644 1.772 5.555 1.772 8.612 0 6.361-2.735 12.095-7.088 16.09l9.935 9.589c.34.329.527.785.514 1.258-.015.473-.227.917-.584 1.226l-9.507 8.174c-.315.271-.706.406-1.096.406-.381 0-.763-.13-1.075-.389l-9.998-8.318c-.532-.442-.739-1.166-.519-1.823l1.58-4.74c-1.301.242-2.639.375-4.009.375-12.046 0-21.847-9.8-21.847-21.847 0-7.778 4.088-14.614 10.225-18.486h-6.864c-.929 0-1.681-.753-1.681-1.681s.752-1.68 1.681-1.68h13.444c.955 0 1.899.045 2.838.111.725-.073 1.46-.111 2.204-.111 4.812 0 9.262 1.567 12.877 4.213 13.27 6.609 22.414 20.313 22.414 36.119 0 11.145-4.604 21.681-12.554 29.238l3.876-.646c.917-.149 1.781.465 1.933 1.381zm-17.437-63.224c-3.095-2.335-6.943-3.721-11.109-3.721-.719 0-1.427.045-2.125.125-9.195 1.058-16.361 8.886-16.361 18.361 0 10.193 8.293 18.486 18.486 18.486.849 0 1.683-.063 2.502-.174l-.308-.298c-.668-.645-.686-1.709-.042-2.376.645-.669 1.708-.686 2.377-.042l1.827 1.764c7.072-2.597 12.131-9.399 12.131-17.36-.001-6.027-2.901-11.388-7.378-14.765zm1.984 33.919-3.628 1.209 1.665 1.608c.668.644.686 1.708.043 2.375-.33.342-.77.514-1.21.514-.42 0-.84-.157-1.166-.472l-1.678-1.619-1.139 3.417 8.022 6.675 7.031-6.044zm-25.002 9.23c.02-.018.042-.031.062-.05.688-.638.706-1.698.084-2.386-.017 0-.017 0-.017 0-.622-.639-1.715-.672-2.369-.051-.02.019-.035.042-.053.062-.284.297-.452.689-.469 1.098-.016.454.151.891.454 1.21.319.337.757.521 1.226.521.41-.001.786-.138 1.082-.404zm-14.14 5.226h.84 4.201c.924 0 1.68-.756 1.68-1.68 0-.925-.756-1.681-1.68-1.681h-2.521v-1.68c0-.925-.756-1.681-1.68-1.681s-1.681.756-1.681 1.681v1.757c-2.376.404-4.201 2.478-4.201 4.965 0 2.772 2.268 5.042 5.042 5.042h1.681c.924 0 1.68.756 1.68 1.68s-.756 1.681-1.68 1.681h-.84-4.201c-.707 0-1.313.444-1.56 1.066-.076.191-.121.397-.121.614 0 .924.757 1.681 1.681 1.681h.985 1.536v1.191.489c0 .924.757 1.681 1.681 1.681.383 0 .732-.135 1.016-.353.4-.308.664-.787.664-1.328v-1.757c2.375-.404 4.201-2.479 4.201-4.965 0-2.774-2.27-5.042-5.041-5.042h-1.681c-.924 0-1.681-.756-1.681-1.68 0-.925.756-1.681 1.68-1.681zm20.142-23.767c.271.163.569.24.863.24.571 0 1.127-.29 1.443-.816l10.083-16.806c.478-.796.22-1.828-.576-2.306-.798-.479-1.83-.22-2.306.576l-10.083 16.807c-.477.795-.219 1.828.576 2.305zm-2.496-9.843c-2.78 0-5.041-2.262-5.041-5.042s2.261-5.042 5.041-5.042 5.042 2.261 5.042 5.042-2.262 5.042-5.042 5.042zm1.681-5.042c0-.926-.754-1.681-1.681-1.681s-1.68.755-1.68 1.681.753 1.68 1.68 1.68 1.681-.754 1.681-1.68zm15.125 5.042c2.78 0 5.041 2.261 5.041 5.041s-2.262 5.042-5.041 5.042c-2.78 0-5.042-2.262-5.042-5.042s2.262-5.041 5.042-5.041zm-1.681 5.041c0 .927.754 1.681 1.681 1.681s1.68-.754 1.68-1.681c0-.926-.753-1.68-1.68-1.68s-1.681.754-1.681 1.68z" />
</svg>