<svg id="Layer_2" viewBox="0 0 500 500" fill="#ffffff"
    xmlns="http://www.w3.org/2000/svg">
    <g fill="#ffffff">
        <path
            d="m172.7744 251.2031c1.0161 0 2.0474-.2383 3.0098-.7422l14.2427-7.457c3.1802-1.665 4.4087-5.5938 2.7432-8.7734-1.665-3.1807-5.5938-4.4092-8.7734-2.7441l-14.2427 7.457c-3.1802 1.665-4.4082 5.5938-2.7432 8.7734 1.1611 2.2178 3.4223 3.4863 5.7636 3.4863z" />
        <path
            d="m178.8457 256.3076c-3.1802 1.666-4.4087 5.5938-2.7432 8.7734 1.1611 2.2188 3.4224 3.4863 5.7637 3.4863 1.0161 0 2.0474-.2383 3.0098-.7422l14.2422-7.457c3.1802-1.666 4.4087-5.5938 2.7432-8.7734-1.665-3.1816-5.5938-4.4092-8.7734-2.7441z" />
        <path
            d="m447.1045 123.0244c-1.4238-3.2959-5.25-4.8164-8.5444-3.3896l-54.3853 23.4902c-3.2959 1.4229-4.8135 5.249-3.3901 8.5439 1.061 2.4561 3.4551 3.9248 5.9707 3.9248.8599 0 1.7344-.1719 2.5737-.5352l54.3853-23.4902c3.2959-1.4228 4.8134-5.249 3.3901-8.5439z" />
        <path
            d="m369.2974 124.4053c1.5352 0 3.0762-.541 4.314-1.6406l19.9102-17.6846c2.6841-2.3838 2.9272-6.4922.5435-9.1758-2.3848-2.6846-6.4932-2.9268-9.1763-.543l-19.9102 17.6846c-2.6841 2.3838-2.9272 6.4922-.5435 9.1758 1.2846 1.4463 3.0693 2.1836 4.8623 2.1836z" />
        <path
            d="m397.4824 189.6816c.1938 0 .3892-.0078.5859-.0254l26.9893-2.4131c3.5757-.3203 6.2153-3.4775 5.8955-7.0537-.3198-3.5752-3.4785-6.21-7.0527-5.8955l-26.9893 2.4131c-3.5757.3203-6.2153 3.4775-5.8955 7.0537.3023 3.3789 3.1382 5.9209 6.4668 5.9209z" />
        <path
            d="m138.1753 35.1934c-47.3174 0-85.8125 38.4951-85.8125 85.8125 0 35.9541 22.236 66.7947 53.6701 79.5432l-26.3386 16.7888c-.0191.0122-.0359.0271-.0549.0396-.1483.0967-.2906.2012-.4302.3096-.0428.0332-.0885.0635-.1304.0977-.1755.1433-.3434.2954-.5029.4561-.0388.0391-.0729.0818-.1107.1216-.1182.1252-.2334.2529-.3414.3872-.0487.0608-.0929.124-.1393.1865-.0909.1216-.1791.2446-.2614.3726-.0427.0667-.0827.1345-.1229.2024-.0782.1318-.1519.2659-.2208.4036-.0336.0671-.0663.1343-.0976.2026-.067.1462-.1274.2954-.1837.4473-.0238.0645-.0488.1279-.0706.1931-.0546.1628-.1003.3293-.142.4978-.0145.0583-.032.1155-.0449.1743-.0415.1904-.0724.384-.0969.5801-.0043.0347-.0133.0679-.0171.1025-.0005.0049-.0002.0098-.0008.0146-.0241.2275-.0378.4585-.0378.6924v209.3875c0 9.6765 4.2422 18.377 10.9595 24.3525.2031.1992.4149.3857.6383.5532 5.6775 4.7954 13.0059 7.6938 21.0018 7.6938h279.3818c8.049 0 15.4205-2.9385 21.1135-7.7905.1509-.1187.296-.2456.4374-.3789 6.7684-5.9778 11.0487-14.7112 11.0487-24.4302v-209.3876c0-.2339-.0137-.4648-.0378-.6924-.0005-.0049-.0002-.0098-.0008-.0146-.0038-.0347-.0128-.0679-.0171-.1025-.0244-.196-.0554-.3896-.0969-.5801-.0129-.0588-.0303-.116-.0449-.1743-.0417-.1685-.0875-.335-.142-.4978-.0218-.0652-.0468-.1287-.0706-.1931-.0563-.1519-.1167-.301-.1837-.4473-.0313-.0684-.064-.1355-.0976-.2026-.0689-.1377-.1426-.2717-.2208-.4036-.0402-.0679-.0802-.1357-.1229-.2024-.0823-.1279-.1705-.251-.2614-.3726-.0464-.0625-.0906-.1257-.1393-.1865-.108-.1343-.2233-.262-.3414-.3872-.0378-.0398-.072-.0825-.1107-.1216-.1595-.1606-.3275-.3127-.5029-.4561-.0419-.0342-.0876-.0645-.1304-.0977-.1396-.1084-.2819-.2129-.4302-.3096-.019-.0125-.0358-.0273-.0549-.0396l-37.7891-24.0877c-.2538-.1619-.5165-.2966-.7824-.4192-3.4722-10.6079-8.0604-21.4705-13.66-32.1648-5.0649-9.6748-10.7427-18.8184-16.8755-27.1758-25.3472-34.5469-54.1094-50.3828-73.2729-40.3516-7.7946 4.0813-13.0518 11.8982-15.5078 22.7056-.1371.3662-.282.7478-.4336 1.1431-8.58-3.5085-18.5147-2.7402-26.4854 2.3398l-9.5817 6.1079c.075-1.4673.1134-2.9438.1134-4.4292.0001-47.3173-38.495-85.8124-85.8124-85.8124zm-72.8125 85.8125c0-40.1494 32.6636-72.8125 72.8125-72.8125s72.8125 32.6631 72.8125 72.8125-32.6636 72.8125-72.8125 72.8125-72.8125-32.6631-72.8125-72.8125zm72.9863 147.5839c-1.1453-6.54 1.4277-12.9644 6.4952-16.7422 1.9989 11.4463 7.4928 22.3564 15.4719 30.8174-2.4725.7354-5.0767.874-7.6862.4041l-14.2531-14.2532c-.0104-.0754-.0145-.1504-.0278-.2261zm158.0496-104.5476c1.3234.0168 3.8621.8835 7.2263 3.531 5.0845 4.001 10.2896 10.667 14.2808 18.291 3.9912 7.6221 6.5049 15.6973 6.896 22.1553.2328 3.8398-.3358 6.3101-.9908 7.5691l-24.2153-1.8938c-2.8115-4.488-5.5107-9.1685-8.0546-14.0269-3.4029-6.4993-6.317-12.8862-8.7997-19.0979zm-36.3283-16.5578c2.7098 18.1948 9.6279 38.4915 19.954 58.2129 8.837 16.8782 19.4443 31.9421 30.7243 43.8335-.3963-.0776-.7897-.1572-1.1896-.2329-26.6926-5.0581-50.6492-3.1934-70.1161 5.3347-19.3252-7.7578-31.5486-32.3245-25.4426-52.2874 21.7122-16.9214 36.503-37.6582 46.07-54.8608zm148.1986 284.7226c0 4.1052-1.2738 7.9158-3.4396 11.0679l-117.7196-83.604 121.1592-121.1587zm-181.4936-83.8486-5.1783 3.6777-57.0681-57.0684c1.6534-.52 3.2654-1.1826 4.8114-1.9922.7078-.3704 1.3956-.7788 2.0706-1.2046 2.8452 1.7595 5.8605 3.2512 9.0256 4.4224.8765.3237 1.7842.5254 2.6992.6155l17.8745 22.7957c1.2783 1.6299 3.1865 2.4893 5.1196 2.4893 1.1634 0 2.3292-.3291 3.3783-.9717l18.8405 26.21c-.527.3366-1.0595.6613-1.5733 1.0263zm1.3423-73.0737 6.5259 12.3892-27.2036 19.0625-11.4653-14.6221zm12.5204 66.9267c-.1064-.1833-.2217-.3638-.348-.5396l-20.1164-27.9849 17.3561-12.1616 43.2414 46.0986-4.412 4.4119-5.178-3.6775c-9.0277-6.4118-20.1637-8.4528-30.5431-6.1469zm105.9004-67.8027c.1125.04.2263.0703.3397.1038 1.9393.5854 3.842 1.0198 5.7035 1.3015l-62.6132 62.6125-41.8739-44.6406c1.5991-1.9753 1.9563-4.7571.7198-7.1042l-9.1798-17.4272 3.3585-1.7583c.3759-.1968.7163-.4375 1.0394-.6963 34.0874-15.3838 76.3777-2.5801 93.8006 4.0173 2.9671 1.5156 5.8738 2.7128 8.7054 3.5915zm-147.1122-62.3589c-.4248 19.4355 9.9136 39.1797 26.1279 49.9023l-41.4736 21.7148c-18.6387-7.4502-30.623-30.3379-26.127-49.9023zm11.4207 147.6209-117.7196 83.6042c-2.1657-3.1523-3.4394-6.9626-3.4394-11.0679v-193.6958zm-101.5594 92.1359c-1.6716 0-3.2861-.2329-4.8362-.6287l119.8223-85.0974c.2725-.1658.5367-.3496.7875-.5593l9.2415-6.5632c8.7778-6.2334 20.5732-6.2354 29.3511 0l129.8515 92.2202c-1.55.3955-3.1644.6284-4.8359.6284zm295.1602-227.8584-17.4272 17.4272c.3108-3.9919.3363-8.2612.0342-12.8159-.3654-5.509-1.1867-11.2861-2.4088-17.2334zm-122.5347-119.292c1.9443-1.0186 4.1587-1.5088 6.5928-1.5088 13.2646 0 32.9761 14.6006 50.1685 38.0322 5.7476 7.834 11.0771 16.4189 15.8403 25.5156 24.2295 46.2764 24.521 87.2139 9.6284 95.0117-3.5109 1.8381-7.9953 1.9521-13.1183.4846-1.0936-.5051-3.9268-1.7749-8.1345-3.3921-3.4915-1.8687-7.1607-4.3027-10.9459-7.3162-7.8494-6.249-15.5999-14.4333-22.8571-24.0061l16.4606 1.2874c.1601.0127.319.0173.4771.0181.0118 0 .0233.0024.0351.0024.0272 0 .0545-.0044.0817-.0049.2068-.0024.4116-.0144.6139-.0361.0775-.0083.1544-.0225.2318-.0337.1614-.0232.321-.051.4787-.0859.0782-.0176.1559-.0364.2338-.0569.1733-.0454.3434-.0981.5111-.1575.0567-.02.1137-.0369.1701-.0586.226-.0869.4463-.1851.6598-.2957.0095-.0049.0195-.0081.029-.0129 3.6089-1.8896 9.5391-7.1055 8.7085-20.8105-.5059-8.3438-3.4736-18.0742-8.356-27.3984-4.8818-9.3252-11.189-17.3076-17.7583-22.4766-10.7387-8.4502-18.3807-6.6045-22.0116-4.7258-.2116.1082-.4182.2278-.6187.3604-.0458.03-.087.0647-.1318.0957-.1287.0896-.2574.1794-.3804.2795-.1327.1074-.2567.2224-.3793.3386-.0305.0291-.0634.0547-.0935.0842-.1681.166-.3259.3396-.4733.5208l-9.8894 11.9678c-5.8128-19.0532-7.1078-35.5369-4.7323-46.8596 1.233-3.4185 1.864-5.5586 1.989-5.9932.0873-.3032.1434-.6074.1855-.9111 1.6737-3.6882 3.9527-6.3754 6.7847-7.8584zm-41.4693 25.6338c4.33-2.7593 9.7141-3.2056 14.3925-1.3557-9.1547 19.5095-27.3137 49.7261-58.4374 70.0266l-45.314 23.7256c-2.7319 1.4316-4.7378 3.9619-5.5029 6.9414-.6686 2.5999-1.1118 5.2375-1.356 7.8892-1.0842.4146-2.1554.8706-3.1846 1.4097-7.2787 3.8113-12.4373 10.3137-14.6917 17.8621l-32.8405-32.8406 29.1274-18.5659c5.0435.9268 10.2313 1.436 15.5386 1.436 39.889 0 73.5061-27.3582 83.0788-64.2954z" />
        <path
            d="m174.8774 153.4541c3.5898 0 6.5-2.9102 6.5-6.5v-60.9785c0-3.5898-2.9102-6.5-6.5-6.5h-27.5634c-3.5898 0-6.5 2.9102-6.5 6.5v11.7744h-21.0635c-3.5898 0-6.5 2.9102-6.5 6.5v11.8516h-21.063c-3.5898 0-6.5 2.9102-6.5 6.5v24.3525c0 3.5898 2.9102 6.5 6.5 6.5h27.563 27.5635zm-21.0634-60.9785h14.5635v47.9785h-14.5635v-36.2041zm-55.1265 36.626h14.563v11.3525h-14.563zm27.563-6.5v-11.8516h14.5635v29.7041h-14.5635z" />
        <path
            d="m323.0278 425.5859h-21.127c-3.5898 0-6.5 2.9102-6.5 6.5s2.9102 6.5 6.5 6.5h21.127c3.5898 0 6.5-2.9102 6.5-6.5s-2.9101-6.5-6.5-6.5z" />
    </g>
</svg>