<svg id="Capa_1" enable-background="new 0 0 512 512" height="512" viewBox="0 0 512 512" width="512"
    fill="#ffffff"
    xmlns="http://www.w3.org/2000/svg">
    <g>
        <path
            d="m497 442.641h-16.062v-262.594c0-17.92-14.579-32.5-32.5-32.5h-60.688v-6.98c0-5.718-3.178-10.859-8.292-13.416l-16.788-8.357c-.323-.95-.659-1.896-1.009-2.84h58.937c3.118 9.029 11.703 15.531 21.777 15.531 12.699 0 23.031-10.332 23.031-23.031s-10.332-23.031-23.031-23.031c-10.075 0-18.659 6.503-21.777 15.531h-62.066l4.494-13.48c1.806-5.424.417-11.304-3.624-15.348l-4.936-4.936 28.16-28.16c.465-.465 1.109-.732 1.768-.732h20.674c3.118 9.029 11.703 15.531 21.777 15.531 12.699 0 23.031-10.332 23.031-23.031s-10.333-23.032-23.032-23.032c-10.075 0-18.659 6.503-21.777 15.531h-20.674c-4.675 0-9.069 1.82-12.375 5.125l-28.159 28.16-4.936-4.936c-4.042-4.042-9.922-5.433-15.352-3.624l-17.789 5.962c-4.368-2.156-8.92-4.042-13.481-5.587l-8.404-16.809c-2.558-5.115-7.698-8.292-13.416-8.292h-28.961c-5.718 0-10.858 3.177-13.416 8.292l-8.358 16.788c-4.607 1.566-9.159 3.453-13.481 5.591l-17.837-5.945c-5.421-1.806-11.306-.419-15.35 3.624l-4.935 4.936-28.159-28.16c-3.306-3.305-7.7-5.125-12.375-5.125h-20.674c-3.118-9.029-11.703-15.531-21.777-15.531-12.699 0-23.031 10.332-23.031 23.031s10.332 23.031 23.031 23.031c10.075 0 18.659-6.503 21.777-15.531h20.674c.658 0 1.303.267 1.768.732l28.16 28.16-4.935 4.936c-4.043 4.044-5.432 9.926-3.624 15.35l4.518 13.479h-62.094c-3.118-9.029-11.702-15.532-21.777-15.532-12.699 0-23.031 10.332-23.031 23.031s10.332 23.031 23.031 23.031c10.075 0 18.659-6.503 21.777-15.531h58.938c-.344.929-.674 1.861-.99 2.792l-16.811 8.405c-5.113 2.558-8.29 7.698-8.29 13.416v6.98h-60.687c-17.921 0-32.5 14.58-32.5 32.5v262.594h-16.062c-8.271 0-15 6.729-15 15v14.094c0 17.92 14.579 32.5 32.5 32.5h447c17.921 0 32.5-14.58 32.5-32.5v-14.094c0-8.27-6.729-14.999-15-14.999zm-70.156-419.875c4.429 0 8.031 3.603 8.031 8.031s-3.603 8.031-8.031 8.031-8.031-3.603-8.031-8.031 3.602-8.031 8.031-8.031zm-341.688 16.062c-4.429 0-8.031-3.603-8.031-8.031s3.603-8.031 8.031-8.031 8.031 3.603 8.031 8.031-3.602 8.031-8.031 8.031zm357.219 61.594c4.429 0 8.031 3.603 8.031 8.031s-3.603 8.031-8.031 8.031-8.031-3.603-8.031-8.031 3.602-8.031 8.031-8.031zm-372.75 16.062c-4.429 0-8.031-3.603-8.031-8.031s3.603-8.031 8.031-8.031 8.031 3.603 8.031 8.031-3.602 8.031-8.031 8.031zm69.625 24.082 16.808-8.404c3.55-1.774 6.205-4.808 7.476-8.545 2.304-6.783 4.742-11.417 5.069-12.165 1.555-3.432 1.752-7.279.549-10.886l-5.944-17.836 20.477-20.478 17.836 5.945c3.766 1.256 7.794.987 11.337-.762 3.783-1.867 7.725-3.501 11.715-4.856 3.733-1.269 6.769-3.923 8.544-7.474l8.404-16.809h28.961l8.404 16.81c1.775 3.55 4.811 6.204 8.544 7.473 3.99 1.355 7.932 2.989 11.716 4.857 3.542 1.747 7.568 2.017 11.336.762l17.835-5.945 20.479 20.479-5.944 17.833c-1.207 3.618-1.006 7.476.561 10.917.573 1.298 2.788 5.456 5.057 12.138 1.27 3.735 3.925 6.769 7.473 8.542l16.81 8.405v6.98h-63.175c-3.662-26.291-26.293-46.594-53.575-46.594-1.567 0-3.148.068-4.7.202-4.126.355-7.184 3.989-6.828 8.116s3.97 7.189 8.117 6.828c1.124-.097 2.272-.146 3.411-.146 18.992 0 34.864 13.613 38.371 31.594h-76.737c1.254-6.407 4.1-12.449 8.314-17.508 2.651-3.182 2.222-7.911-.961-10.563-3.183-2.65-7.913-2.221-10.562.961-6.463 7.756-10.601 17.18-11.995 27.11h-63.183zm357.75 331.168c0 9.649-7.851 17.5-17.5 17.5h-447c-9.649 0-17.5-7.851-17.5-17.5v-14.094h61.852c4.143 0 7.5-3.358 7.5-7.5s-3.357-7.5-7.5-7.5h-30.79v-262.593c0-9.649 7.851-17.5 17.5-17.5h384.875c9.649 0 17.5 7.851 17.5 17.5v262.594h-147.812c-1.989 0-3.896.79-5.304 2.197l-8.209 8.209c-3.305 3.305-7.699 5.125-12.374 5.125h-72.477c-4.675 0-9.069-1.82-12.374-5.125l-8.209-8.209c-1.407-1.407-3.314-2.197-5.304-2.197h-82.023c-4.143 0-7.5 3.358-7.5 7.5s3.357 7.5 7.5 7.5h78.917l6.012 6.012c6.139 6.139 14.301 9.519 22.981 9.519h72.477c8.681 0 16.843-3.38 22.981-9.519l6.012-6.012h175.769z" />
        <path
            d="m449.875 419.078v-232.969c0-4.142-3.357-7.5-7.5-7.5h-372.75c-4.143 0-7.5 3.358-7.5 7.5v232.969c0 4.142 3.357 7.5 7.5 7.5h372.75c4.143 0 7.5-3.358 7.5-7.5zm-15-7.5h-357.75v-217.969h357.75z" />
        <path
            d="m193.875 395.516c12.699 0 23.031-10.332 23.031-23.031v-139.782c0-12.699-10.332-23.031-23.031-23.031s-23.031 10.332-23.031 23.031v139.781c0 12.7 10.332 23.032 23.031 23.032zm-8.031-162.813c0-4.428 3.603-8.031 8.031-8.031s8.031 3.603 8.031 8.031v139.781c0 4.428-3.603 8.031-8.031 8.031s-8.031-3.603-8.031-8.031z" />
        <path
            d="m256 255.734h15.797v116.75c0 12.699 10.332 23.031 23.031 23.031s23.031-10.332 23.031-23.031v-69.891c0-4.142-3.357-7.5-7.5-7.5s-7.5 3.358-7.5 7.5v69.891c0 4.428-3.603 8.031-8.031 8.031s-8.031-3.603-8.031-8.031v-124.25c0-4.142-3.357-7.5-7.5-7.5h-23.297c-4.429 0-8.031-3.603-8.031-8.031s3.603-8.031 8.031-8.031h77.656c4.429 0 8.031 3.603 8.031 8.031s-3.603 8.031-8.031 8.031h-23.297c-4.143 0-7.5 3.358-7.5 7.5v19.359c0 4.142 3.357 7.5 7.5 7.5s7.5-3.358 7.5-7.5v-11.859h15.797c12.699 0 23.031-10.332 23.031-23.031s-10.332-23.031-23.031-23.031h-77.656c-12.699 0-23.031 10.332-23.031 23.031s10.332 23.031 23.031 23.031z" />
    </g>
</svg>