<svg id="Capa_1"  height="512" viewBox="0 0 512 512" width="512"  fill="#ffffff
"
    xmlns="http://www.w3.org/2000/svg">
    <g>
        <path
            d="m432.354 236.476c-3.19 0-6.499.238-10.411.75-4.106.538-7 4.303-6.463 8.41s4.302 7.004 8.41 6.463c3.25-.425 5.94-.624 8.464-.624 35.646 0 64.646 29 64.646 64.646s-29 64.645-64.646 64.645h-344.693c-40.065 0-72.661-32.596-72.661-72.661 0-40.066 32.596-72.662 72.564-72.664l.175.012c.329.024.659.044.994.049 3.834.069 7.043-2.74 7.545-6.51 7.416-55.731 55.404-97.759 111.625-97.759 37.472 0 72.402 18.557 93.438 49.639 1.898 2.806 5.448 3.988 8.646 2.89 8.565-2.941 17.371-4.432 26.174-4.432 28.639 0 55.366 15.426 69.754 40.259 2.077 3.584 6.666 4.806 10.249 2.73 3.584-2.077 4.807-6.666 2.729-10.25-17.061-29.447-48.762-47.74-82.732-47.74-8.613 0-17.215 1.196-25.642 3.561-24.082-32.447-62.033-51.657-102.616-51.657-31.142 0-61.125 11.347-84.429 31.952-21.444 18.961-35.862 44.479-41.044 72.412-45.911 2.715-82.43 40.926-82.43 87.508 0 48.336 39.324 87.661 87.661 87.661h344.693c43.917 0 79.646-35.729 79.646-79.645s-35.729-79.645-79.646-79.645z" />
        <path
            d="m134.701 326.132c-8.229 0-16.168-3.34-21.238-8.935-2.782-3.071-7.526-3.301-10.594-.521-3.069 2.782-3.303 7.524-.521 10.594 7.866 8.68 19.961 13.862 32.354 13.862 14.936 0 27.952-9.822 30.277-22.847 1.764-9.88-2.828-22.826-21.005-29.53-9.787-3.61-18.874-7.549-21.288-8.609-2.224-1.661-3.299-4.291-2.891-7.136.525-3.661 3.366-6.608 7.598-7.883 11.969-3.604 22.828 5.055 23.107 5.28 3.17 2.64 7.883 2.223 10.539-.939 2.665-3.17 2.256-7.901-.915-10.567-.69-.581-17.139-14.139-37.058-8.137-9.82 2.958-16.763 10.665-18.119 20.114-1.266 8.814 2.553 17.292 9.965 22.125.331.216.679.406 1.04.567.442.197 10.97 4.883 22.83 9.258 8.18 3.017 12.346 7.69 11.43 12.821-.92 5.152-6.974 10.483-15.511 10.483z" />
        <path
            d="m365.958 326.132c-8.229 0-16.167-3.34-21.237-8.935-2.782-3.071-7.526-3.301-10.594-.521-3.069 2.782-3.303 7.524-.521 10.594 7.866 8.68 19.961 13.862 32.353 13.862 14.936 0 27.953-9.822 30.278-22.847 1.764-9.88-2.828-22.826-21.005-29.53-9.788-3.61-18.874-7.549-21.288-8.609-2.224-1.661-3.299-4.291-2.891-7.136.525-3.661 3.365-6.608 7.597-7.883 11.985-3.607 22.857 5.078 23.108 5.281 3.17 2.639 7.881 2.222 10.538-.94 2.665-3.17 2.256-7.901-.915-10.567-.69-.581-17.139-14.139-37.058-8.137-9.819 2.958-16.762 10.665-18.118 20.114-1.266 8.814 2.553 17.292 9.965 22.125.331.216.679.405 1.04.566.442.197 10.969 4.883 22.83 9.258 8.18 3.017 12.346 7.69 11.43 12.82-.92 5.154-6.974 10.485-15.512 10.485z" />
        <path
            d="m309.128 341.408c4.143 0 7.5-3.358 7.5-7.5v-52.969c0-4.142-3.357-7.5-7.5-7.5s-7.5 3.358-7.5 7.5v.014c-4.642-2.795-10.074-4.406-15.876-4.406-17.025 0-30.876 13.851-30.876 30.876s13.851 30.876 30.876 30.876c5.802 0 11.234-1.611 15.876-4.406v.014c0 4.143 3.357 7.501 7.5 7.501zm-23.376-18.108c-8.754 0-15.876-7.122-15.876-15.876s7.122-15.876 15.876-15.876 15.876 7.122 15.876 15.876-7.122 15.876-15.876 15.876z" />
        <path
            d="m233.258 341.408c4.143 0 7.5-3.358 7.5-7.5v-52.969c0-4.142-3.357-7.5-7.5-7.5s-7.5 3.358-7.5 7.5v.014c-4.642-2.795-10.074-4.406-15.876-4.406-17.025 0-30.876 13.851-30.876 30.876s13.851 30.876 30.876 30.876c5.802 0 11.234-1.611 15.876-4.406v.014c0 4.143 3.357 7.501 7.5 7.501zm-23.376-18.108c-8.754 0-15.876-7.122-15.876-15.876s7.122-15.876 15.876-15.876 15.876 7.122 15.876 15.876-7.122 15.876-15.876 15.876z" />
    </g>
</svg>