<svg id="Layer_1" height="512" viewBox="0 0 512 512" width="512" xmlns="http://www.w3.org/2000/svg" data-name="Layer 1"><path d="m370.236 141.991c-42.506 0-77.088 34.582-77.088 77.088 0 20.21 7.828 38.618 20.598 52.379.122.166.237.336.381.489 14.729 15.618 34.655 24.219 56.109 24.219 20.636 0 39.85-7.992 54.397-22.522.069-.068.136-.138.205-.206.493-.496.996-.98 1.478-1.491.096-.102.168-.218.254-.326 12.86-13.779 20.753-32.252 20.753-52.543 0-42.506-34.582-77.088-77.088-77.088zm0 10.006c36.989 0 67.082 30.093 67.082 67.082 0 15.878-5.557 30.477-14.813 41.978-13.877-13.714-32.612-21.498-52.269-21.498s-38.405 7.778-52.282 21.482c-9.248-11.5-14.8-26.091-14.8-41.963 0-36.989 30.093-67.082 67.082-67.082zm7.143 133.78c-.126.013-.251.031-.378.044-.923.093-1.853.158-2.787.213-.206.012-.41.033-.617.043-1.114.055-2.235.085-3.362.085s-2.252-.03-3.367-.085c-.192-.009-.382-.029-.574-.04-.952-.055-1.902-.122-2.843-.217-.097-.01-.193-.024-.29-.034-14.737-1.552-28.062-7.898-38.395-17.442 12.031-11.986 28.351-18.778 45.469-18.778s33.425 6.797 45.456 18.791c-10.315 9.522-23.609 15.856-38.312 17.42zm-7.143-53.814c18.67 0 33.86-15.189 33.86-33.86s-15.189-33.888-33.86-33.888-33.888 15.202-33.888 33.888 15.202 33.86 33.888 33.86zm0-57.742c13.153 0 23.854 10.713 23.854 23.882s-10.701 23.854-23.854 23.854-23.882-10.701-23.882-23.854 10.713-23.882 23.882-23.882zm-148.904-32.229h-79.54c-42.507 0-77.088 34.582-77.088 77.088s34.582 77.088 77.088 77.088h79.54c2.763 0 5.003-2.24 5.003-5.003v-42.718c0-2.763-2.24-5.003-5.003-5.003h-79.54c-13.207 0-24.364-11.157-24.364-24.364s11.158-24.364 24.364-24.364h79.54c2.763 0 5.003-2.24 5.003-5.003v-42.718c0-2.763-2.24-5.003-5.003-5.003zm-7.455 111.458h2.452v32.712h-32.741v-32.712zm-106.455-34.37c0 18.952 15.418 34.37 34.37 34.37h31.791v32.712h-31.791c-36.989 0-67.083-30.093-67.083-67.082s30.093-67.082 67.083-67.082h31.791v32.712h-31.791c-18.952 0-34.37 15.418-34.37 34.37zm76.167-34.37v-32.712h32.741v32.712zm95.159-11.806c0 2.763-2.24 5.003-5.003 5.003h-28.63c-1.973 0-3.762-1.16-4.567-2.961-.806-1.801-.477-3.908.839-5.378l3.876-4.332h-8.396c-2.763 0-5.003-2.24-5.003-5.003s2.24-5.003 5.003-5.003h19.587c1.973 0 3.762 1.16 4.567 2.961.806 1.801.477 3.908-.839 5.378l-3.876 4.332h17.439c2.763 0 5.003 2.24 5.003 5.003zm0 90.567c0 2.763-2.24 5.003-5.003 5.003h-17.439l3.876 4.332c1.315 1.471 1.645 3.577.839 5.378-.805 1.801-2.594 2.961-4.567 2.961h-19.587c-2.763 0-5.003-2.24-5.003-5.003s2.24-5.003 5.003-5.003h8.396l-3.876-4.332c-1.315-1.471-1.645-3.577-.839-5.378.805-1.801 2.594-2.961 4.567-2.961h28.63c2.763 0 5.003 2.24 5.003 5.003zm197.589-223.754h-440.674c-18.014 0-32.669 14.655-32.669 32.669v281.962c0 18.014 14.655 32.669 32.669 32.669h167.438l-9.145 45.865h-63.927c-2.763 0-5.003 2.24-5.003 5.003v29.396c0 2.763 2.24 5.003 5.003 5.003h251.943c2.763 0 5.003-2.24 5.003-5.003v-29.396c0-2.763-2.24-5.003-5.003-5.003h-63.899l-9.145-45.865h167.409c18.014 0 32.669-14.655 32.669-32.669v-281.962c0-18.014-14.655-32.669-32.669-32.669zm-440.674 10.006h440.674c12.496 0 22.663 10.166 22.663 22.663v263.834h-486v-263.834c0-12.497 10.166-22.663 22.663-22.663zm341.306 412.554h-241.938v-19.39h63.024s.007 0 .01 0h.011 115.876s.007 0 .011 0h.01 62.995v19.39zm-69.099-29.396h-103.71l9.145-45.865h85.42zm191.131-78.534c0 12.497-10.167 22.664-22.663 22.664h-440.675c-12.497 0-22.663-10.167-22.663-22.664v-8.121h486v8.121zm-258.718 7.257c0-2.763 2.24-5.003 5.003-5.003h21.458c2.763 0 5.003 2.24 5.003 5.003s-2.24 5.003-5.003 5.003h-21.458c-2.763 0-5.003-2.24-5.003-5.003zm-192.091-251.503h415.644c7.76 0 14.074-6.314 14.074-14.075v-15.789c0-7.761-6.313-14.074-14.074-14.074h-415.644c-7.76 0-14.074 6.313-14.074 14.074v15.789c0 7.761 6.313 14.075 14.074 14.075zm-4.067-29.863c0-2.243 1.825-4.068 4.067-4.068h415.644c2.243 0 4.068 1.825 4.068 4.068v15.789c0 2.243-1.825 4.068-4.068 4.068h-415.644c-2.243 0-4.067-1.825-4.067-4.068z"/></svg>