<svg id="Joystick" enable-background="new 0 0 64 64" height="512" viewBox="0 0 64 64" width="512" xmlns="http://www.w3.org/2000/svg"><path d="m54.617 53.662c-4.211.001-8.955-3.178-13.906-9.364-1.276-1.594-3.208-2.508-5.298-2.508h-6.825c-2.091 0-4.022.914-5.298 2.508-6.162 7.701-12.005 10.741-16.896 8.791-4.525-1.802-6.722-7.328-6.354-15.981.271-6.355 1.939-13.515 3.448-17.303 1.484-3.726 4.331-6.651 8.015-8.236 3.683-1.586 7.765-1.642 11.492-.156 1.084.432 2.114.987 3.06 1.651 3.63 2.544 8.265 2.545 11.892 0 .948-.665 1.978-1.22 3.059-1.651 3.728-1.485 7.807-1.429 11.492.156 3.685 1.586 6.532 4.511 8.015 8.236 1.509 3.788 3.178 10.947 3.448 17.303.368 8.653-1.829 14.179-6.354 15.981-.962.383-1.96.573-2.99.573zm-26.029-15.495h6.825c3.198 0 6.159 1.409 8.126 3.867 4.921 6.149 9.557 8.954 12.728 7.69 3.94-1.57 4.244-8.481 4.074-12.461-.254-5.952-1.798-12.613-3.195-16.116-1.126-2.827-3.285-5.047-6.081-6.249-2.796-1.203-5.893-1.244-8.719-.119-.821.327-1.601.749-2.321 1.252-4.85 3.402-11.195 3.404-16.051 0-.717-.503-1.497-.924-2.321-1.252-2.826-1.125-5.923-1.084-8.719.119-2.795 1.203-4.955 3.422-6.081 6.249-1.395 3.502-2.941 10.163-3.194 16.115-.169 3.98.135 10.892 4.075 12.461 3.167 1.257 7.806-1.541 12.726-7.69 1.968-2.457 4.93-3.866 8.128-3.866zm-6.351-13.14h-3.532v-3.532c0-1.001-.811-1.811-1.811-1.811s-1.811.811-1.811 1.811v3.532h-3.531c-1.001 0-1.811.811-1.811 1.811 0 1.001.811 1.811 1.811 1.811h3.531v3.531c0 1 .811 1.811 1.811 1.811s1.811-.811 1.811-1.811v-3.531h3.532c1.001 0 1.811-.811 1.811-1.811s-.811-1.811-1.811-1.811zm24.218-5.992c-1.449 0-2.632 1.183-2.632 2.645 0 1.449 1.183 2.632 2.632 2.632 1.461 0 2.645-1.183 2.645-2.632-.001-1.461-1.184-2.645-2.645-2.645zm0 10.325c-1.449 0-2.632 1.183-2.632 2.645 0 1.449 1.183 2.632 2.632 2.632 1.461 0 2.645-1.183 2.645-2.632-.001-1.462-1.184-2.645-2.645-2.645zm-5.157-5.156c-1.461 0-2.645 1.183-2.645 2.632 0 1.461 1.183 2.645 2.645 2.645 1.449 0 2.632-1.183 2.632-2.645.001-1.449-1.182-2.632-2.632-2.632zm10.325 0c-1.461 0-2.645 1.183-2.645 2.632 0 1.461 1.183 2.645 2.645 2.645 1.449 0 2.632-1.183 2.632-2.645 0-1.449-1.183-2.632-2.632-2.632z" fill="rgb(0,0,0)"/></svg>