<svg height="512pt" viewBox="0 0 512 512" width="512pt" xmlns="http://www.w3.org/2000/svg"><path d="m256 148c-9.953125 0-19.855469 1.375-29.433594 4.089844-5.3125 1.503906-8.398437 7.03125-6.894531 12.34375 1.503906 5.316406 7.035156 8.402344 12.347656 6.898437 7.804688-2.210937 15.871094-3.332031 23.980469-3.332031 48.523438 0 88 39.476562 88 88s-39.476562 88-88 88-88-39.476562-88-88c0-15.425781 4.078125-30.640625 11.789062-44 2.761719-4.78125 1.125-10.898438-3.660156-13.660156-4.785156-2.761719-10.898437-1.121094-13.660156 3.660156-9.464844 16.394531-14.46875 35.066406-14.46875 54 0 59.550781 48.449219 108 108 108s108-48.449219 108-108-48.449219-108-108-108zm0 0"/><path d="m482 266c5.523438 0 10-4.476562 10-10v-51.105469c11.640625-4.125 20-15.242187 20-28.277343 0-16.542969-13.457031-30-30-30s-30 13.457031-30 30c0 13.035156 8.359375 24.152343 20 28.277343v41.105469h-76v-85.464844h26c5.523438 0 10-4.476562 10-10v-45.636718c11.640625-4.128907 20-15.246094 20-28.28125 0-16.542969-13.457031-30-30-30-16.539062 0-30 13.457031-30 30 0 13.035156 8.363281 24.152343 20 28.28125v35.636718h-19.820312c-6.640626-14.460937-21.25-24.535156-38.179688-24.535156h-88v-20.464844h40c5.523438 0 10-4.476562 10-10v-27.253906c11.640625-4.128906 20-15.246094 20-28.28125 0-16.542969-13.457031-30-30-30s-30 13.457031-30 30c0 13.035156 8.359375 24.152344 20 28.28125v17.253906h-40c-5.523438 0-10 4.476563-10 10v30.464844h-41.789062v-63.710938c0-5.523437-4.480469-10-10-10h-22.648438c-4.128906-11.640624-15.246094-20-28.28125-20-16.542969 0-30 13.457032-30 30 0 16.539063 13.457031 30 30 30 13.035156 0 24.152344-8.363281 28.28125-20h12.648438v53.710938h-26.210938c-23.15625 0-42 18.839844-42 42v85.523438h-41v-82.957032c11.636719-4.128906 20-15.242187 20-28.28125 0-16.542968-13.457031-30-30-30s-30 13.457032-30 30c0 13.035156 8.359375 24.152344 20 28.28125v92.957032c0 5.523437 4.476562 10 10 10h51v22.476562h-86c-5.519531 0-10 4.476562-10 10v51.101562c-11.640625 4.128907-20 15.246094-20 28.28125 0 16.542969 13.457031 30 30 30s30-13.457031 30-30c0-13.035156-8.359375-24.152343-20-28.277343v-41.105469h76v29.714844h-16c-5.519531 0-10 4.476562-10 10v71.386718c-11.636719 4.128907-20 15.246094-20 28.28125 0 16.542969 13.457031 30 30 30s30-13.457031 30-30c0-13.035156-8.359375-24.152343-20-28.28125v-61.386718h6c.015625 0 .03125-.003906.042969-.003906.90625 22.367187 19.375 40.289062 41.957031 40.289062h88v20.464844h-40c-5.519531 0-10 4.476562-10 10v27.253906c-11.636719 4.128906-20 15.246094-20 28.28125 0 16.542969 13.460938 30 30 30 16.542969 0 30-13.457031 30-30 0-13.039062-8.359375-24.152344-20-28.28125v-17.253906h40c5.523438 0 10-4.476563 10-10v-30.464844h52.300781v25.199219c0 5.523437 4.476563 10 10 10 5.519531 0 10-4.476563 10-10v-25.199219h15.699219c23.160156 0 42-18.839844 42-42v-12.214844h38c4.128906 11.640625 15.242188 20 28.28125 20 16.539062 0 30-13.457031 30-30 0-16.539062-13.460938-30-30-30-13.039062 0-24.152344 8.363282-28.28125 20h-38v-55.785156zm0-99.382812c5.515625 0 10 4.484374 10 10 0 5.511718-4.484375 10-10 10s-10-4.488282-10-10c0-5.515626 4.484375-10 10-10zm-60-100c5.515625 0 10 4.484374 10 10 0 5.511718-4.484375 9.996093-9.992188 10-.003906 0-.003906 0-.007812 0 0 0 0 0-.003906 0-5.511719-.003907-9.996094-4.488282-9.996094-10 0-5.511719 4.488281-10 10-10zm-116-46.617188c5.515625 0 10 4.484375 10 10s-4.484375 10-10 10-10-4.484375-10-10 4.484375-10 10-10zm-162.71875 42.289062c-5.515625 0-10-4.488281-10-10 0-5.515624 4.484375-10 10-10 5.511719 0 9.996094 4.480469 10 9.988282v.011718.007813c-.003906 5.511719-4.488281 9.992187-10 9.992187zm-78.28125 59.996094c5.515625 0 10 4.488282 10 10 0 5.511719-4.484375 9.996094-9.996094 10h-.003906c-.003906 0-.003906 0-.003906 0-5.511719-.003906-9.996094-4.488281-9.996094-10 0-5.511718 4.484375-10 10-10zm-35 263.097656c-5.515625 0-10-4.484374-10-10 0-5.511718 4.484375-9.996093 9.996094-10h.003906.007812c5.507813.003907 9.992188 4.488282 9.992188 10 0 5.515626-4.484375 10-10 10zm70 70c-5.511719 0-10-4.484374-10-10 0-5.511718 4.488281-10 10-10 5.515625 0 10 4.488282 10 10 0 5.515626-4.484375 10-10 10zm106 36.617188c-5.511719 0-10-4.484375-10-10 0-5.511719 4.484375-9.996094 9.996094-10h.003906.007812c5.507813.003906 9.992188 4.488281 9.992188 10 0 5.515625-4.484375 10-10 10zm256.28125-170.214844c5.511719 0 10 4.488282 10 10 0 5.515625-4.488281 10-10 10s-9.996094-4.480468-10-9.988281c0-.003906 0-.007813 0-.011719s0-.003906 0-.007812c.003906-5.511719 4.488281-9.992188 10-9.992188zm-86.28125 32.214844c0 12.128906-9.871094 22-22 22h-196c-12.128906 0-22-9.871094-22-22v-196c0-12.128906 9.871094-22 22-22h196c12.128906 0 22 9.871094 22 22zm0 0"/><path d="m438.300781 442.585938v-21.386719c0-5.523438-4.480469-10-10-10h-31.035156c-5.523437 0-10 4.476562-10 10 0 5.523437 4.476563 10 10 10h21.035156v11.386719c-11.640625 4.128906-20 15.242187-20 28.28125 0 16.539062 13.457031 30 30 30 16.539063 0 30-13.460938 30-30 0-13.039063-8.363281-24.152344-20-28.28125zm-10 38.28125c-5.515625 0-10-4.488282-10-10 0-5.511719 4.484375-9.996094 9.992188-10h.007812.003907c5.511718.003906 9.996093 4.484374 9.996093 10 0 5.511718-4.488281 10-10 10zm0 0"/><path d="m368.535156 411.199219h-.269531c-5.523437 0-10 4.476562-10 10 0 5.523437 4.476563 10 10 10h.269531c5.519532 0 10-4.476563 10-10 0-5.523438-4.480468-10-10-10zm0 0"/><path d="m189.195312 194.300781c2.429688 0 4.867188-.878906 6.789063-2.664062l.082031-.070313c4.050782-3.753906 4.292969-10.082031.542969-14.132812-3.753906-4.050782-10.082031-4.296875-14.132813-.542969l-.078124.074219c-4.054688 3.75-4.296876 10.078125-.542969 14.128906 1.96875 2.128906 4.652343 3.207031 7.339843 3.207031zm0 0"/><path d="m256 186c-5.523438 0-10 4.476562-10 10v11.296875c-.859375.265625-1.710938.570313-2.554688.917969-7.148437 2.960937-12.710937 8.511718-15.65625 15.625-2.949218 7.117187-2.941406 14.972656.019532 22.125 2.960937 7.148437 8.511718 12.707031 15.628906 15.65625l17.472656 7.238281c4.542969 1.878906 6.707032 7.105469 4.824219 11.644531-.902344 2.179688-2.617187 3.886719-4.832031 4.804688-2.214844.914062-4.632813.921875-6.8125.019531l-8.738282-3.621094c-5.101562-2.113281-10.949218.3125-13.066406 5.414063-2.109375 5.101562.3125 10.953125 5.414063 13.066406l8.304687 3.4375v12.375c0 5.523438 4.476563 10 10 10 5.519532 0 10-4.476562 10-10v-11.296875c.859375-.265625 1.710938-.570313 2.554688-.917969 7.148437-2.960937 12.710937-8.511718 15.65625-15.628906 6.101562-14.726562-.921875-31.675781-15.648438-37.773438l-17.472656-7.238281c-2.183594-.90625-3.886719-2.621093-4.804688-4.835937-.917968-2.210938-.925781-4.632813-.019531-6.8125.902344-2.179688 2.617188-3.886719 4.832031-4.800782 2.214844-.917968 4.632813-.925781 6.8125-.023437l8.738282 3.621094c5.105468 2.113281 10.953125-.308594 13.066406-5.414063 2.113281-5.101562-.3125-10.953125-5.414062-13.066406l-8.300782-3.4375v-12.375c-.003906-5.523438-4.480468-10-10.003906-10zm0 0"/></svg>