<?xml version="1.0" encoding="UTF-8"?>
<svg xmlns="http://www.w3.org/2000/svg" width="36" height="36" viewBox="0 0 36 36" fill="none">
  <path d="M20.9146 18.2793L24.0968 21.929L21.0793 24.8562L17.4668 21.4934" stroke="#3C39C6" stroke-width="0.71" stroke-miterlimit="10" stroke-linecap="round" stroke-linejoin="round"></path>
  <path d="M14.0143 18.2793L4.12773 9.0781L3.75586 3.96216L8.86648 4.49341L17.4674 14.3375" stroke="#3C39C6" stroke-width="0.71" stroke-miterlimit="10" stroke-linecap="round" stroke-linejoin="round"></path>
  <path d="M25.968 20.1191L19.207 26.6702L21.1147 28.6389L27.8756 22.0879L25.968 20.1191Z" stroke="#3C39C6" stroke-width="0.71" stroke-miterlimit="10" stroke-linecap="round" stroke-linejoin="round"></path>
  <path d="M25.8658 24.0377L23.2637 26.5591L28.5725 32.0381L31.1746 29.5167L25.8658 24.0377Z" stroke="#3C39C6" stroke-width="0.71" stroke-miterlimit="10" stroke-linecap="round" stroke-linejoin="round"></path>
  <path d="M31.1677 3.96216L26.0624 4.49341L10.8262 21.929L13.8543 24.8562L30.8012 9.08341L31.1677 3.96216Z" stroke="#3C39C6" stroke-width="0.71" stroke-miterlimit="10" stroke-linecap="round" stroke-linejoin="round"></path>
  <path d="M7.0574 22.0874L13.8184 28.6384L15.726 26.6697L8.96504 20.1186L7.0574 22.0874Z" stroke="#3C39C6" stroke-width="0.71" stroke-miterlimit="10" stroke-linecap="round" stroke-linejoin="round"></path>
  <path d="M3.7592 29.5136L6.36133 32.0349L11.6702 26.5559L9.06805 24.0346L3.7592 29.5136Z" stroke="#3C39C6" stroke-width="0.71" stroke-miterlimit="10" stroke-linecap="round" stroke-linejoin="round"></path>
  <path d="M18.1212 6.73535L16.3203 8.04754" stroke="#3C39C6" stroke-width="0.71" stroke-miterlimit="10" stroke-linecap="round" stroke-linejoin="round"></path>
  <path d="M17.882 8.2919L16.5645 6.49097" stroke="#3C39C6" stroke-width="0.71" stroke-miterlimit="10" stroke-linecap="round" stroke-linejoin="round"></path>
  <path d="M18.9434 30.9285L16.8184 30.2432" stroke="#3C39C6" stroke-width="0.71" stroke-miterlimit="10" stroke-linecap="round" stroke-linejoin="round"></path>
  <path d="M17.5371 31.6509L18.2224 29.5259" stroke="#3C39C6" stroke-width="0.71" stroke-miterlimit="10" stroke-linecap="round" stroke-linejoin="round"></path>
  <path d="M5.64703 17.9977C6.3776 17.9977 6.96984 17.4054 6.96984 16.6749C6.96984 15.9443 6.3776 15.3521 5.64703 15.3521C4.91646 15.3521 4.32422 15.9443 4.32422 16.6749C4.32422 17.4054 4.91646 17.9977 5.64703 17.9977Z" stroke="#3C39C6" stroke-width="0.71" stroke-miterlimit="10" stroke-linecap="round" stroke-linejoin="round"></path>
  <path d="M31.1688 20.0908C31.7615 20.0908 32.242 19.6104 32.242 19.0177C32.242 18.425 31.7615 17.9446 31.1688 17.9446C30.5762 17.9446 30.0957 18.425 30.0957 19.0177C30.0957 19.6104 30.5762 20.0908 31.1688 20.0908Z" stroke="#3C39C6" stroke-width="0.71" stroke-miterlimit="10" stroke-linecap="round" stroke-linejoin="round"></path>
</svg>
