<?xml version="1.0" encoding="UTF-8"?>
<svg xmlns="http://www.w3.org/2000/svg" width="36" height="36" viewBox="0 0 36 36" fill="none">
  <path d="M23.3988 29.8243V15.2422C23.3988 14.68 23.1755 14.1409 22.778 13.7434C22.3805 13.3459 21.8414 13.1226 21.2792 13.1226H14.7329C14.1707 13.1226 13.6316 13.3459 13.2341 13.7434C12.8366 14.1409 12.6133 14.68 12.6133 15.2422V29.8243C12.6133 31.4387 16.2901 33.501 17.9045 33.5167C19.5189 33.5323 23.3988 31.496 23.3988 29.8243Z" stroke="#3C39C6" stroke-width="0.71" stroke-linecap="round" stroke-linejoin="round"></path>
  <path d="M25.2772 27.455L23.4023 30.0798V16.7788L25.2772 19.4036V27.455Z" stroke="#3C39C6" stroke-width="0.71" stroke-linecap="round" stroke-linejoin="round"></path>
  <path d="M10.7266 27.455L12.6066 30.0798V16.7788L10.7266 19.4036V27.455Z" stroke="#3C39C6" stroke-width="0.71" stroke-linecap="round" stroke-linejoin="round"></path>
  <path d="M12.6047 18.6279L10.7246 21.2527" stroke="#3C39C6" stroke-width="0.71" stroke-linecap="round" stroke-linejoin="round"></path>
  <path d="M12.6047 20.4612L10.7246 23.086" stroke="#3C39C6" stroke-width="0.71" stroke-linecap="round" stroke-linejoin="round"></path>
  <path d="M10.7246 23.7786L12.6047 26.4033" stroke="#3C39C6" stroke-width="0.71" stroke-linecap="round" stroke-linejoin="round"></path>
  <path d="M10.7246 25.6118L12.6047 28.2366" stroke="#3C39C6" stroke-width="0.71" stroke-linecap="round" stroke-linejoin="round"></path>
  <path d="M23.4004 18.6279L25.2752 21.2527" stroke="#3C39C6" stroke-width="0.71" stroke-linecap="round" stroke-linejoin="round"></path>
  <path d="M23.4004 20.4612L25.2752 23.086" stroke="#3C39C6" stroke-width="0.71" stroke-linecap="round" stroke-linejoin="round"></path>
  <path d="M25.2752 23.7786L23.4004 26.4033" stroke="#3C39C6" stroke-width="0.71" stroke-linecap="round" stroke-linejoin="round"></path>
  <path d="M25.2752 25.6118L23.4004 28.2366" stroke="#3C39C6" stroke-width="0.71" stroke-linecap="round" stroke-linejoin="round"></path>
  <path d="M19.242 27.6318V13.1226H16.7682V27.6318C16.7572 27.8009 16.7811 27.9706 16.8383 28.1302C16.8955 28.2898 16.9848 28.4359 17.1007 28.5596C17.2166 28.6833 17.3567 28.7819 17.5123 28.8493C17.6678 28.9168 17.8356 28.9515 18.0051 28.9515C18.1746 28.9515 18.3424 28.9168 18.4979 28.8493C18.6535 28.7819 18.7936 28.6833 18.9095 28.5596C19.0254 28.4359 19.1147 28.2898 19.1719 28.1302C19.2291 27.9706 19.253 27.8009 19.242 27.6318Z" stroke="#3C39C6" stroke-width="0.71" stroke-linecap="round" stroke-linejoin="round"></path>
  <path d="M18.0039 14.3V19.4819" stroke="#3C39C6" stroke-width="0.71" stroke-linecap="round" stroke-linejoin="round"></path>
  <path d="M18.841 11.748H17.0391V13.1229H18.841V11.748Z" stroke="#3C39C6" stroke-width="0.71" stroke-linecap="round" stroke-linejoin="round"></path>
  <path d="M19.8783 2.48315H14.3527C13.8909 2.48453 13.4485 2.66895 13.1224 2.99599C12.7964 3.32302 12.6133 3.76599 12.6133 4.2278V4.2278C12.6147 4.6887 12.7984 5.13034 13.1243 5.45625C13.4502 5.78216 13.8918 5.96586 14.3527 5.96723H22.1906C22.6395 5.96723 23.07 6.14556 23.3874 6.46298C23.7048 6.78039 23.8832 7.2109 23.8832 7.6598V7.6598C23.8832 7.88183 23.8393 8.10167 23.7542 8.30673C23.6691 8.51179 23.5443 8.69803 23.3871 8.85479C23.2299 9.01154 23.0432 9.13572 22.8379 9.22021C22.6326 9.3047 22.4126 9.34784 22.1906 9.34716H19.4825C19.0345 9.34854 18.6053 9.52747 18.289 9.84474C17.9727 10.162 17.7951 10.5917 17.7951 11.0397V11.6647" stroke="#3C39C6" stroke-width="0.71" stroke-linecap="round" stroke-linejoin="round"></path>
</svg>
