<?xml version="1.0" encoding="UTF-8"?>
<svg xmlns="http://www.w3.org/2000/svg" width="36" height="36" viewBox="0 0 36 36" fill="none">
  <path d="M31.4998 9.29221L4.5 9.29222C3.39543 9.29222 2.5 10.1876 2.5 11.2922L2.5 24.6387C2.5 25.7432 3.39543 26.6387 4.5 26.6387L31.4998 26.6387C32.6044 26.6387 33.4998 25.7432 33.4998 24.6387L33.4998 11.2922C33.4998 10.1876 32.6044 9.29221 31.4998 9.29221Z" stroke="#3C39C6" stroke-width="0.71" stroke-linecap="round" stroke-linejoin="round"></path>
  <path d="M30.3789 26.7148L30.3789 9.28524" stroke="#3C39C6" stroke-width="0.71"></path>
  <path d="M32.0137 18.5L32.0137 17.5" stroke="#3C39C6" stroke-width="0.71"></path>
  <rect x="3.97266" y="21.2119" width="6.49093" height="1.11913" rx="0.559563" transform="rotate(-90 3.97266 21.2119)" fill="#3C39C6"></rect>
  <path d="M15.3534 19.8064C15.3534 19.8064 14.6578 21.328 16.1919 23.1292C16.3347 23.2948 16.2104 23.5484 15.9882 23.5484H14.3457C14.2214 23.5484 14.1103 23.4837 14.0494 23.3776C13.7479 22.8393 12.9227 21.121 13.6924 19.5605" stroke="#3C39C6" stroke-width="0.5"></path>
  <path d="M16.7441 15.637V19.8242L22.0738 22.9166C22.5129 23.1728 23.071 22.8623 23.071 22.3602V13.0984C23.071 12.5989 22.5155 12.2884 22.0738 12.542L16.7441 15.637Z" stroke="#3C39C6" stroke-width="0.5"></path>
  <path d="M12.827 15.6601C12.216 15.6601 11.7188 16.1466 11.7188 16.7444V18.7137C11.7188 19.3115 12.216 19.798 12.827 19.798H16.5882V15.6575H12.827V15.6601Z" stroke="#3C39C6" stroke-width="0.5"></path>
  <path d="M23.2754 15.9397V19.5238C23.8811 19.146 24.2831 18.4861 24.2831 17.7331C24.2831 16.98 23.8811 16.3149 23.2754 15.9397Z" fill="#3C39C6" stroke="#3C39C6" stroke-width="0.5"></path>
</svg>
