<svg width="431" height="399" viewBox="0 0 431 399" fill="none" xmlns="http://www.w3.org/2000/svg">
<path d="M296.398 233.397C357.538 233.397 407.103 222.791 407.103 209.707C407.103 196.623 357.538 186.017 296.398 186.017C235.257 186.017 185.693 196.623 185.693 209.707C185.693 222.791 235.257 233.397 296.398 233.397Z" stroke="#232A33" stroke-width="2" stroke-miterlimit="10"/>
<path d="M296.398 257.087C357.538 257.087 407.103 246.481 407.103 233.397C407.103 220.313 357.538 209.707 296.398 209.707C235.257 209.707 185.693 220.313 185.693 233.397C185.693 246.481 235.257 257.087 296.398 257.087Z" stroke="#232A33" stroke-width="2" stroke-miterlimit="10"/>
<path d="M296.398 185.992C357.538 185.992 407.103 175.385 407.103 162.302C407.103 149.218 357.538 138.612 296.398 138.612C235.257 138.612 185.693 149.218 185.693 162.302C185.693 175.385 235.257 185.992 296.398 185.992Z" stroke="#232A33" stroke-width="2" stroke-miterlimit="10"/>
<path d="M296.398 209.682C357.538 209.682 407.103 199.075 407.103 185.992C407.103 172.908 357.538 162.302 296.398 162.302C235.257 162.302 185.693 172.908 185.693 185.992C185.693 199.075 235.257 209.682 296.398 209.682Z" stroke="#232A33" stroke-width="2" stroke-miterlimit="10"/>
<path d="M296.398 280.777C357.538 280.777 407.103 270.171 407.103 257.087C407.103 244.003 357.538 233.397 296.398 233.397C235.257 233.397 185.693 244.003 185.693 257.087C185.693 270.171 235.257 280.777 296.398 280.777Z" stroke="#232A33" stroke-width="2" stroke-miterlimit="10"/>
<path d="M296.398 304.467C357.538 304.467 407.103 293.86 407.103 280.777C407.103 267.693 357.538 257.087 296.398 257.087C235.257 257.087 185.693 267.693 185.693 280.777C185.693 293.86 235.257 304.467 296.398 304.467Z" stroke="#232A33" stroke-width="2" stroke-miterlimit="10"/>
<path d="M296.398 328.157C357.538 328.157 407.103 317.55 407.103 304.467C407.103 291.383 357.538 280.777 296.398 280.777C235.257 280.777 185.693 291.383 185.693 304.467C185.693 317.55 235.257 328.157 296.398 328.157Z" stroke="#232A33" stroke-width="2" stroke-miterlimit="10"/>
<path d="M296.398 351.872C357.538 351.872 407.103 341.266 407.103 328.182C407.103 315.099 357.538 304.492 296.398 304.492C235.257 304.492 185.693 315.099 185.693 328.182C185.693 341.266 235.257 351.872 296.398 351.872Z" stroke="#232A33" stroke-width="2" stroke-miterlimit="10"/>
<path d="M112.971 84.7571H317.91C322.699 84.7571 326.602 88.6673 326.602 93.4663V131.578H104.28V93.4663C104.28 88.6419 108.157 84.7571 112.971 84.7571Z" fill="white" stroke="#232A33" stroke-width="2" stroke-miterlimit="10"/>
<path d="M132.355 115.557C136.427 115.557 139.729 112.249 139.729 108.168C139.729 104.087 136.427 100.779 132.355 100.779C128.283 100.779 124.981 104.087 124.981 108.168C124.981 112.249 128.283 115.557 132.355 115.557Z" stroke="#232A33" stroke-width="2" stroke-miterlimit="10"/>
<path d="M157.871 115.557C161.943 115.557 165.245 112.249 165.245 108.168C165.245 104.087 161.943 100.779 157.871 100.779C153.799 100.779 150.498 104.087 150.498 108.168C150.498 112.249 153.799 115.557 157.871 115.557Z" stroke="#232A33" stroke-width="2" stroke-miterlimit="10"/>
<path d="M183.387 115.557C187.46 115.557 190.761 112.249 190.761 108.168C190.761 104.087 187.46 100.779 183.387 100.779C179.315 100.779 176.014 104.087 176.014 108.168C176.014 112.249 179.315 115.557 183.387 115.557Z" stroke="#232A33" stroke-width="2" stroke-miterlimit="10"/>
<path d="M104.28 131.578H326.602V323.205C326.602 328.004 322.699 331.915 317.91 331.915H112.971C108.182 331.915 104.28 328.004 104.28 323.205V131.578Z" fill="white" stroke="#232A33" stroke-width="2" stroke-miterlimit="10"/>
<path d="M52.3101 100.779H50.4097V185.332H52.3101V100.779Z" fill="#232A33"/>
<path d="M93.5488 143.986V142.081L9.17093 142.081V143.986L93.5488 143.986Z" fill="#232A33"/>
<path d="M22.2095 112.493L20.8657 113.839L80.5293 173.626L81.8731 172.28L22.2095 112.493Z" fill="#232A33"/>
<path d="M81.8594 113.823L80.5156 112.476L20.852 172.263L22.1958 173.61L81.8594 113.823Z" fill="#232A33"/>
<path d="M51.3723 150.596C55.5286 150.596 58.8979 147.22 58.8979 143.055C58.8979 138.89 55.5286 135.514 51.3723 135.514C47.216 135.514 43.8467 138.89 43.8467 143.055C43.8467 147.22 47.216 150.596 51.3723 150.596Z" fill="#232A33"/>
<path d="M329.895 110.123C353.322 110.123 372.312 91.0928 372.312 67.6181C372.312 44.1433 353.322 25.1133 329.895 25.1133C306.469 25.1133 287.479 44.1433 287.479 67.6181C287.479 91.0928 306.469 110.123 329.895 110.123Z" fill="white" stroke="#232A33" stroke-width="2" stroke-miterlimit="10"/>
<path d="M358.224 77.4952C354.145 89.2259 342.97 97.6812 329.896 97.6812C316.795 97.6812 305.646 89.2259 301.567 77.4952" stroke="#232A33" stroke-width="2" stroke-miterlimit="10"/>
<path d="M355.437 76.9874C355.437 76.9874 357.793 78.257 360.555 78.0285" stroke="#232A33" stroke-width="2" stroke-miterlimit="10"/>
<path d="M304.101 76.9874C304.101 76.9874 301.744 78.257 298.982 78.0285" stroke="#232A33" stroke-width="2" stroke-miterlimit="10"/>
<path d="M340.487 70.081C344.238 70.081 347.278 63.6468 347.278 55.7097C347.278 47.7725 344.238 41.3383 340.487 41.3383C336.737 41.3383 333.696 47.7725 333.696 55.7097C333.696 63.6468 336.737 70.081 340.487 70.081Z" fill="#232A33"/>
<path d="M319.304 70.081C323.054 70.081 326.095 63.6468 326.095 55.7097C326.095 47.7725 323.054 41.3383 319.304 41.3383C315.554 41.3383 312.513 47.7725 312.513 55.7097C312.513 63.6468 315.554 70.081 319.304 70.081Z" fill="#232A33"/>
<path d="M81.0947 93.4663C81.0947 75.8448 95.3858 61.5242 112.971 61.5242H266.549" stroke="#232A33" stroke-width="2" stroke-miterlimit="10"/>
<path d="M239.994 80.2883C239.994 80.2883 245.315 61.5242 266.549 61.5242C245.315 61.5242 239.994 42.7601 239.994 42.7601" stroke="#232A33" stroke-width="2" stroke-miterlimit="10"/>
<path d="M190.887 355.148H112.971C95.3858 355.148 81.0947 340.827 81.0947 323.206V195.793" stroke="#232A33" stroke-width="2" stroke-miterlimit="10"/>
<path d="M81.0949 199.068C82.9001 199.068 84.3636 197.602 84.3636 195.793C84.3636 193.984 82.9001 192.517 81.0949 192.517C79.2896 192.517 77.8262 193.984 77.8262 195.793C77.8262 197.602 79.2896 199.068 81.0949 199.068Z" fill="#232A33"/>
<path d="M190.887 358.423C192.693 358.423 194.156 356.957 194.156 355.148C194.156 353.339 192.693 351.872 190.887 351.872C189.082 351.872 187.619 353.339 187.619 355.148C187.619 356.957 189.082 358.423 190.887 358.423Z" fill="#232A33"/>
<path d="M139.374 149.931L142.71 158.617L151.407 161.949L142.71 165.281L139.374 173.967L136.015 165.305L127.341 161.949L136.038 158.617L139.374 149.931Z" fill="#3C39C6"/>
<path d="M56.1126 315.773L59.4485 324.459L68.1456 327.791L59.4485 331.123L56.1126 339.809L52.7529 331.123L44.0796 327.791L52.7529 324.459L56.1126 315.773Z" fill="#F3454F"/>
<path d="M89.7845 25.0905L93.1204 33.753L101.818 37.1086L93.1204 40.4404L89.7845 49.1268L86.4248 40.4404L77.7515 37.1086L86.4248 33.753L89.7845 25.0905Z" fill="#232A33"/>
<path d="M194.45 183.099C186.969 183.099 179.452 185.534 173.743 191.378C162.327 203.067 162.641 221.086 173.743 232.775L218.811 280.503L263.879 232.775C274.983 221.086 275.295 203.067 263.879 191.378C252.464 180.177 233.881 180.177 222.466 191.378L218.811 195.275L215.157 191.378C209.447 185.534 201.932 183.099 194.45 183.099Z" fill="#F3454F"/>
<path d="M378.181 108.34C376.81 108.34 375.433 108.786 374.387 109.857C372.295 111.999 372.352 115.301 374.387 117.443L382.645 126.189L390.904 117.443C392.939 115.301 392.996 111.999 390.904 109.857C388.812 107.804 385.407 107.804 383.315 109.857L382.645 110.571L381.976 109.857C380.929 108.786 379.552 108.34 378.181 108.34Z" stroke="#232A33" stroke-width="3"/>
<path d="M378.181 115.683C376.81 115.683 375.433 116.13 374.387 117.2C372.295 119.342 372.352 122.644 374.387 124.786L382.645 133.532L390.904 124.786C392.939 122.644 392.996 119.342 390.904 117.2C388.812 115.148 385.407 115.148 383.315 117.2L382.645 117.914L381.976 117.2C380.929 116.13 379.552 115.683 378.181 115.683Z" fill="#3C39C6"/>
<path d="M386.623 336.653C387.627 335.326 388.183 333.7 388.183 332.009C388.183 329.326 386.683 326.786 384.267 325.37C383.646 325.005 382.938 324.813 382.217 324.814H367.88L368.239 317.469C368.322 315.694 367.694 314.009 366.475 312.724C365.876 312.091 365.154 311.587 364.353 311.243C363.552 310.9 362.689 310.725 361.817 310.728C358.709 310.728 355.958 312.82 355.133 315.814L349.998 334.4H349.98V359.978H378.217C378.767 359.978 379.305 359.87 379.801 359.655C382.647 358.442 384.483 355.663 384.483 352.579C384.483 351.826 384.375 351.085 384.16 350.368C385.164 349.041 385.72 347.416 385.72 345.725C385.72 344.972 385.613 344.231 385.397 343.513C386.402 342.187 386.958 340.561 386.958 338.87C386.946 338.117 386.838 337.37 386.623 336.653ZM340.354 336.312V358.065C340.354 359.123 341.209 359.978 342.267 359.978H346.153V334.4H342.267C341.209 334.4 340.354 335.254 340.354 336.312Z" fill="#3C39C6"/>
</svg>
