<svg width="63" height="116" viewBox="0 0 63 116" fill="none" xmlns="http://www.w3.org/2000/svg">
<path d="M52.3435 0.00232729C53.0252 0.197518 53.7068 0.374516 54.3885 0.590133C59.6667 2.26968 62.9227 6.9452 62.9318 12.8735C62.9605 35.561 62.9833 58.2493 63 80.9383C63 88.3374 62.9591 95.7342 62.9341 103.133C62.9046 110.802 57.7081 115.998 50.0327 116C37.6722 116 25.3118 116 12.9513 116C5.22595 116 0.0590139 110.8 0.0499252 103.024C0.0256889 81.6896 0.00908861 60.3601 0 39.0359C0 30.3159 0.0166003 21.5951 0.0499252 12.8735C0.0658303 6.17579 3.78762 1.59103 10.336 0.174768C10.4365 0.131889 10.5294 0.0728498 10.6109 0L52.3435 0.00232729ZM4.96912 19.417V96.5717H57.9649V19.417H4.96912ZM4.99874 14.4441H58.0535C58.0535 13.7746 58.0535 13.1777 58.0535 12.5785C58.0217 7.94843 54.9338 4.82983 50.2918 4.82302C37.745 4.80486 25.1974 4.81245 12.6491 4.84574C11.4796 4.85021 10.3221 5.08145 9.24083 5.52664C5.93485 6.92702 4.46478 10.1204 4.99874 14.4441ZM4.89866 101.563C4.89866 102.123 4.93048 102.609 4.89866 103.09C4.56693 107.561 8.01611 111.261 13.0148 111.218C25.2958 111.125 37.5791 111.195 49.8623 111.175C50.8056 111.193 51.7474 111.09 52.6639 110.866C56.572 109.808 58.5715 106.27 57.9489 101.563H4.89866Z" fill="#313131"/>
<path d="M38.3335 43.3891C38.2953 43.669 38.2407 43.9463 38.1698 44.2197C35.2766 53.8521 32.3827 63.4853 29.4879 73.1193C29.1948 74.0998 28.654 74.8079 27.6156 75.0212C26.6954 75.2119 25.7594 75.0416 25.3072 74.2268C24.9414 73.5686 24.6619 72.6086 24.8528 71.9323C27.7066 62.1727 30.6422 52.4313 33.5733 42.6922C33.9754 41.3577 35.1228 40.6269 36.3112 40.8379C37.4995 41.049 38.3244 42.025 38.3335 43.3891Z" fill="#313131"/>
<path d="M21.39 43.5661C22.1557 44.1789 22.9351 44.5874 23.3987 45.2229C24.0121 46.065 23.7758 47.0387 23.1532 47.8512C21.1704 50.4674 19.1823 53.082 17.1888 55.6952C15.4098 58.0306 15.412 58.0283 17.2025 60.3774C19.1717 62.9603 21.1409 65.544 23.1101 68.1284C23.7917 69.0181 23.9689 69.9691 23.369 70.97C22.8555 71.8257 22.0512 72.2954 21.0832 72.0889C20.4675 71.9573 19.7518 71.6168 19.3769 71.1379C16.3777 67.3022 13.4353 63.4211 10.5042 59.5309C9.73166 58.505 9.74071 57.5426 10.5246 56.5054C13.4557 52.6152 16.3936 48.7319 19.386 44.8939C19.8018 44.3605 20.5698 44.095 21.39 43.5661Z" fill="#313131"/>
<path d="M41.6668 72.5021C40.9079 71.8689 40.1444 71.4444 39.6877 70.7998C39.1174 69.9987 39.3128 69.0567 39.9149 68.2669C41.2987 66.4262 42.6983 64.5968 44.0911 62.7652C45.0977 61.442 46.0724 60.0961 47.1267 58.8114C47.5948 58.2395 47.5811 57.8537 47.1267 57.2681C44.7637 54.2268 42.453 51.14 40.1081 48.0919C39.5219 47.3293 39.0765 46.4509 39.5468 45.5952C39.9367 44.89 40.5473 44.332 41.285 44.0065C42.2802 43.6274 43.1868 44.129 43.8457 44.996C45.9422 47.765 48.0447 50.5294 50.1533 53.2893C50.9531 54.3425 51.7687 55.3797 52.5458 56.4487C53.3229 57.5177 53.3502 58.5323 52.564 59.5763C49.6534 63.4348 46.7404 67.2932 43.7616 71.0949C43.3254 71.6645 42.5234 71.9369 41.6668 72.5021Z" fill="#313131"/>
</svg>
