<svg width="643" height="291" viewBox="0 0 643 291" fill="none" xmlns="http://www.w3.org/2000/svg">
<path d="M321.336 146.767C497.975 146.767 641.169 137.644 641.169 126.389C641.169 115.135 497.975 106.012 321.336 106.012C144.698 106.012 1.50391 115.135 1.50391 126.389C1.50391 137.644 144.698 146.767 321.336 146.767Z" stroke="#121212" stroke-width="2" stroke-miterlimit="10"/>
<path d="M321.336 167.171C497.975 167.171 641.169 158.048 641.169 146.794C641.169 135.539 497.975 126.416 321.336 126.416C144.698 126.416 1.50391 135.539 1.50391 146.794C1.50391 158.048 144.698 167.171 321.336 167.171Z" stroke="#121212" stroke-width="2" stroke-miterlimit="10"/>
<path d="M321.336 187.549C497.975 187.549 641.169 178.426 641.169 167.172C641.169 155.917 497.975 146.794 321.336 146.794C144.698 146.794 1.50391 155.917 1.50391 167.172C1.50391 178.426 144.698 187.549 321.336 187.549Z" stroke="#121212" stroke-width="2" stroke-miterlimit="10"/>
<path d="M321.336 207.954C497.975 207.954 641.169 198.83 641.169 187.576C641.169 176.322 497.975 167.198 321.336 167.198C144.698 167.198 1.50391 176.322 1.50391 187.576C1.50391 198.83 144.698 207.954 321.336 207.954Z" stroke="#121212" stroke-width="2" stroke-miterlimit="10"/>
<path d="M321.336 228.331C497.975 228.331 641.169 219.208 641.169 207.954C641.169 196.699 497.975 187.576 321.336 187.576C144.698 187.576 1.50391 196.699 1.50391 207.954C1.50391 219.208 144.698 228.331 321.336 228.331Z" stroke="#121212" stroke-width="2" stroke-miterlimit="10"/>
<path d="M51.0234 44.692H589.592V281.686C589.592 286.108 586.011 289.678 581.574 289.678H59.0406C54.6044 289.678 51.0234 286.108 51.0234 281.686V44.692Z" fill="white" stroke="#121212" stroke-width="2" stroke-miterlimit="10"/>
<path d="M59.0406 1.72559H581.574C586.011 1.72559 589.592 5.29502 589.592 9.71686V44.692H51.0234V9.71686C51.0234 5.29502 54.6044 1.72559 59.0406 1.72559Z" fill="white" stroke="#121212" stroke-width="2" stroke-miterlimit="10"/>
<path d="M76.9474 29.988C80.711 29.988 83.762 26.9469 83.762 23.1954C83.762 19.444 80.711 16.4028 76.9474 16.4028C73.1838 16.4028 70.1328 19.444 70.1328 23.1954C70.1328 26.9469 73.1838 29.988 76.9474 29.988Z" stroke="#121212" stroke-width="2" stroke-miterlimit="10"/>
<path d="M100.463 29.988C104.227 29.988 107.278 26.9469 107.278 23.1954C107.278 19.444 104.227 16.4028 100.463 16.4028C96.6994 16.4028 93.6484 19.444 93.6484 23.1954C93.6484 26.9469 96.6994 29.988 100.463 29.988Z" stroke="#121212" stroke-width="2" stroke-miterlimit="10"/>
<path d="M124.006 29.988C127.77 29.988 130.821 26.9469 130.821 23.1954C130.821 19.444 127.77 16.4028 124.006 16.4028C120.242 16.4028 117.191 19.444 117.191 23.1954C117.191 26.9469 120.242 29.988 124.006 29.988Z" stroke="#121212" stroke-width="2" stroke-miterlimit="10"/>
<path d="M128.787 155.291H127.531V211.31H128.787V155.291Z" fill="#121212"/>
<path d="M156.258 183.933V182.681H100.057V183.933H156.258Z" fill="#121212"/>
<path d="M108.732 163.05L107.844 163.935L147.583 203.546L148.471 202.661L108.732 163.05Z" fill="#121212"/>
<path d="M148.474 163.939L147.586 163.054L107.847 202.665L108.735 203.55L148.474 163.939Z" fill="#121212"/>
<path d="M128.149 188.322C130.924 188.322 133.173 186.08 133.173 183.314C133.173 180.548 130.924 178.306 128.149 178.306C125.374 178.306 123.125 180.548 123.125 183.314C123.125 186.08 125.374 188.322 128.149 188.322Z" fill="#121212"/>
<path d="M305.171 172.472C327.619 172.472 345.818 154.333 345.818 131.957C345.818 109.58 327.619 91.4409 305.171 91.4409C282.722 91.4409 264.523 109.58 264.523 131.957C264.523 154.333 282.722 172.472 305.171 172.472Z" fill="white" stroke="#121212" stroke-width="2" stroke-miterlimit="10"/>
<path d="M332.323 141.386C328.394 152.574 317.705 160.618 305.171 160.618C292.638 160.618 281.948 152.574 278.02 141.386" stroke="#121212" stroke-width="2" stroke-miterlimit="10"/>
<path d="M329.648 140.88C329.648 140.88 331.92 142.079 334.539 141.866" stroke="#121212" stroke-width="2" stroke-miterlimit="10"/>
<path d="M280.449 140.88C280.449 140.88 278.178 142.079 275.559 141.866" stroke="#121212" stroke-width="2" stroke-miterlimit="10"/>
<path d="M315.325 134.301C318.927 134.301 321.846 128.171 321.846 120.609C321.846 113.047 318.927 106.917 315.325 106.917C311.724 106.917 308.805 113.047 308.805 120.609C308.805 128.171 311.724 134.301 315.325 134.301Z" fill="#121212"/>
<path d="M295.017 134.301C298.618 134.301 301.537 128.171 301.537 120.609C301.537 113.047 298.618 106.917 295.017 106.917C291.415 106.917 288.496 113.047 288.496 120.609C288.496 128.171 291.415 134.301 295.017 134.301Z" fill="#121212"/>
<path d="M212.836 188.295H269.33" stroke="#121212" stroke-width="2" stroke-miterlimit="10"/>
<path d="M241.082 160.139V216.451" stroke="#121212" stroke-width="2" stroke-miterlimit="10"/>
<path d="M241.082 216.451C241.082 216.451 250.489 204.011 250.489 188.295C250.489 172.579 241.082 160.139 241.082 160.139" stroke="#121212" stroke-width="2" stroke-miterlimit="10"/>
<path d="M241.083 216.451C256.684 216.451 269.33 203.845 269.33 188.295C269.33 172.745 256.684 160.139 241.083 160.139C225.483 160.139 212.836 172.745 212.836 188.295C212.836 203.845 225.483 216.451 241.083 216.451Z" stroke="#121212" stroke-width="2" stroke-miterlimit="10"/>
<path d="M241.082 216.451C241.082 216.451 259.922 210.165 259.922 188.295C259.922 166.426 241.082 160.139 241.082 160.139" stroke="#121212" stroke-width="2" stroke-miterlimit="10"/>
<path d="M241.083 216.451C241.083 216.451 231.676 204.011 231.676 188.295C231.676 172.579 241.083 160.139 241.083 160.139" stroke="#121212" stroke-width="2" stroke-miterlimit="10"/>
<path d="M241.083 216.451C241.083 216.451 222.242 210.165 222.242 188.295C222.242 166.426 241.083 160.139 241.083 160.139" stroke="#121212" stroke-width="2" stroke-miterlimit="10"/>
<path d="M215.801 200.921C218.821 199.643 226.891 196.899 241.055 196.899C255.219 196.899 263.289 199.643 266.309 200.921" stroke="#121212" stroke-width="2" stroke-miterlimit="10"/>
<path d="M222.484 209.499C225.424 208.113 231.196 206.249 241.084 206.249C250.865 206.249 256.638 208.087 259.604 209.445" stroke="#121212" stroke-width="2" stroke-miterlimit="10"/>
<path d="M215.801 175.696C218.821 176.974 226.891 179.718 241.055 179.718C255.219 179.718 263.289 176.974 266.309 175.696" stroke="#121212" stroke-width="2" stroke-miterlimit="10"/>
<path d="M222.484 167.118C225.424 168.504 231.196 170.368 241.084 170.368C250.865 170.368 256.638 168.53 259.604 167.172" stroke="#121212" stroke-width="2" stroke-miterlimit="10"/>
<path d="M197.23 143.757V167.918H198.567V143.757C198.353 143.784 198.139 143.811 197.899 143.811C197.685 143.811 197.444 143.784 197.23 143.757Z" fill="#121212"/>
<path d="M198.567 133.369V109.208H197.23V133.369C197.444 133.342 197.658 133.315 197.899 133.315C198.139 133.315 198.353 133.342 198.567 133.369Z" fill="#121212"/>
<path d="M203.109 139.229H227.348V137.897H203.109C203.136 138.11 203.163 138.323 203.163 138.563C203.163 138.803 203.136 139.016 203.109 139.229Z" fill="#121212"/>
<path d="M192.688 137.897H168.449V139.229H192.688C192.661 139.016 192.634 138.803 192.634 138.563C192.634 138.323 192.661 138.137 192.688 137.897Z" fill="#121212"/>
<path d="M194.69 134.434L177.56 117.359L176.625 118.292L193.755 135.366C194.022 135.02 194.343 134.701 194.69 134.434Z" fill="#121212"/>
<path d="M201.133 142.718L218.263 159.793L219.198 158.861L202.068 141.786C201.774 142.132 201.48 142.452 201.133 142.718Z" fill="#121212"/>
<path d="M202.068 135.366L219.198 118.292L218.263 117.359L201.133 134.434C201.48 134.701 201.774 135.02 202.068 135.366Z" fill="#121212"/>
<path d="M193.755 141.786L176.625 158.861L177.56 159.793L194.69 142.718C194.343 142.452 194.022 142.132 193.755 141.786Z" fill="#121212"/>
<path d="M482.161 151.056H128.148V183.314H482.161V151.056Z" fill="white" stroke="#121212" stroke-width="2" stroke-miterlimit="10"/>
<path d="M514.523 151.056H482.16V183.314H514.523V151.056Z" fill="#121212" stroke="#121212" stroke-width="2" stroke-miterlimit="10"/>
<path d="M501.082 170.661C504.521 170.661 507.309 167.882 507.309 164.455C507.309 161.027 504.521 158.248 501.082 158.248C497.643 158.248 494.855 161.027 494.855 164.455C494.855 167.882 497.643 170.661 501.082 170.661Z" stroke="white" stroke-width="2" stroke-miterlimit="10"/>
<path d="M496.671 168.85L489.402 176.095" stroke="white" stroke-width="2" stroke-miterlimit="10"/>
<path d="M406.903 167.077C405.594 163.508 409.068 160.018 412.676 161.323L440.816 171.632L468.769 181.888C472.377 183.22 472.751 188.174 469.384 190.012L447.604 201.892L435.685 223.602C433.841 226.985 428.87 226.612 427.534 222.989L417.245 195.127L406.903 167.077Z" fill="#4CBE9E" stroke="#4CBE9E" stroke-width="2" stroke-miterlimit="10"/>
<path d="M410.754 129.838L415.297 148.005L428.365 134.553L423.207 152.533L441.246 147.392L427.75 160.418L445.976 164.946L427.75 169.501L441.246 182.5L423.207 177.359L428.365 195.366L415.297 181.914L410.754 200.054L406.184 181.914L393.142 195.366L398.3 177.359L380.235 182.5L393.73 169.501L375.531 164.946L393.73 160.418L380.235 147.392L398.3 152.533L393.142 134.553L406.184 148.005L410.754 129.838Z" fill="white" stroke="#121212" stroke-width="2" stroke-miterlimit="10"/>
<path fill-rule="evenodd" clip-rule="evenodd" d="M432.059 168.424L427.75 169.501L441.246 182.5L423.207 177.359L428.365 195.366L415.297 181.914L414.114 186.635L406.903 167.077C405.594 163.508 409.068 160.018 412.676 161.323L432.059 168.424Z" fill="#4CBE9E"/>
<path d="M432.059 168.424L432.301 169.394L435.46 168.605L432.403 167.485L432.059 168.424ZM427.75 169.501L427.508 168.531L425.756 168.969L427.056 170.221L427.75 169.501ZM441.246 182.5L440.972 183.462L444.826 184.56L441.939 181.78L441.246 182.5ZM423.207 177.359L423.481 176.397L421.75 175.904L422.246 177.634L423.207 177.359ZM428.365 195.366L427.647 196.063L430.423 198.92L429.326 195.091L428.365 195.366ZM415.297 181.914L416.014 181.217L414.763 179.929L414.327 181.671L415.297 181.914ZM414.114 186.635L413.176 186.981L414.297 190.021L415.084 186.878L414.114 186.635ZM406.903 167.077L405.964 167.422L405.965 167.423L406.903 167.077ZM412.676 161.323L413.02 160.384L413.016 160.383L412.676 161.323ZM431.816 167.454L427.508 168.531L427.992 170.471L432.301 169.394L431.816 167.454ZM427.056 170.221L440.552 183.22L441.939 181.78L428.444 168.781L427.056 170.221ZM441.52 181.538L423.481 176.397L422.933 178.321L440.972 183.462L441.52 181.538ZM422.246 177.634L427.403 195.641L429.326 195.091L424.168 177.084L422.246 177.634ZM429.082 194.669L416.014 181.217L414.579 182.611L427.647 196.063L429.082 194.669ZM414.327 181.671L413.144 186.392L415.084 186.878L416.267 182.157L414.327 181.671ZM415.053 186.289L407.841 166.731L405.965 167.423L413.176 186.981L415.053 186.289ZM407.842 166.733C406.828 163.968 409.52 161.245 412.335 162.264L413.016 160.383C408.616 158.791 404.36 163.047 405.964 167.422L407.842 166.733ZM412.332 162.262L431.715 169.363L432.403 167.485L413.02 160.384L412.332 162.262Z" fill="white"/>
<path d="M124.005 99.2457L127.773 109.022L137.607 112.804L127.773 116.56L124.005 126.363L120.21 116.56L110.402 112.804L120.21 109.022L124.005 99.2457Z" fill="#3C39C6" stroke="#3C39C6" stroke-width="2" stroke-miterlimit="10"/>
<path d="M292.634 214.48L296.402 224.256L306.236 228.039L296.402 231.794L292.634 241.597L288.839 231.794L279.031 228.039L288.839 224.256L292.634 214.48Z" fill="#4CBE9E" stroke="#4CBE9E" stroke-width="2" stroke-miterlimit="10"/>
<path d="M520.884 101.616L524.679 111.392L534.486 115.175L524.679 118.931L520.884 128.734L517.116 118.931L507.281 115.175L517.116 111.392L520.884 101.616Z" fill="#121212" stroke="#121212" stroke-width="2" stroke-miterlimit="10"/>
</svg>