<?xml version="1.0" encoding="UTF-8"?>
<svg xmlns="http://www.w3.org/2000/svg" width="36" height="36" viewBox="0 0 36 36" fill="none">
  <path d="M26.2207 18.3043C20.4819 24.8219 14.1108 27.4395 14.1108 27.4395L9.90039 23.803C9.90039 23.803 11.5576 17.1098 17.1675 10.4868C22.7774 3.85795 31.081 3.51831 31.081 3.51831C31.081 3.51831 31.9594 11.7809 26.2207 18.3043Z" stroke="#3C39C6" stroke-width="0.71" stroke-miterlimit="10" stroke-linecap="round" stroke-linejoin="round"></path>
  <path d="M11.576 19.3057L8.01562 16.2314C8.01562 16.2314 11.3125 11.9742 16.4832 11.3184" stroke="#3C39C6" stroke-width="0.71" stroke-miterlimit="10" stroke-linecap="round" stroke-linejoin="round"></path>
  <path d="M18.3164 25.1265L21.8768 28.2008C21.8768 28.2008 25.6069 24.3184 25.5015 19.1008" stroke="#3C39C6" stroke-width="0.71" stroke-miterlimit="10" stroke-linecap="round" stroke-linejoin="round"></path>
  <path d="M9.57091 25.7603C9.57091 25.7603 6.60468 28.0688 7.90294 30.5965C7.90294 30.5965 10.5382 31.1897 12.2491 28.0731L9.57091 25.7603Z" stroke="#3C39C6" stroke-width="0.71" stroke-miterlimit="10" stroke-linecap="round" stroke-linejoin="round"></path>
  <path d="M1.75 11.3301L7.82838 4.96478L6.73333 3.8346L12.3901 2.00757L11.0725 7.98054L9.86036 6.82108L5.19324 12.0035" stroke="#3C39C6" stroke-width="0.71" stroke-miterlimit="10" stroke-linecap="round" stroke-linejoin="round"></path>
  <path d="M23.6094 33.3189L29.6878 26.9535L28.5927 25.8175L34.2495 23.9963L32.9319 29.9693L31.7197 28.8098L27.0526 33.9923" stroke="#3C39C6" stroke-width="0.71" stroke-miterlimit="10" stroke-linecap="round" stroke-linejoin="round"></path>
  <path d="M25.2462 14.17C25.2462 14.17 25.6854 12.7354 23.9462 11.2304C22.2011 9.72545 18.8867 11.1894 20.7372 13.9182C22.8453 17.0277 22.7809 17.8534 21.6273 18.7259C20.1223 19.8678 16.152 16.852 17.6863 14.7439" stroke="#3C39C6" stroke-width="0.71" stroke-miterlimit="10" stroke-linecap="round" stroke-linejoin="round"></path>
  <path d="M25.0753 10.3813L17.1641 19.5458" stroke="#3C39C6" stroke-width="0.71" stroke-miterlimit="10" stroke-linecap="round" stroke-linejoin="round"></path>
</svg>
