<svg width="36" height="36" viewBox="0 0 36 36" fill="none" xmlns="http://www.w3.org/2000/svg">
<g clip-path="url(#clip0_143_120)">
<path d="M34.753 32.9802H30.2246V35.3576H34.753V32.9802Z" stroke="#121212"/>
<path d="M27.5088 32.9802H22.9805V35.3576H27.5088V32.9802Z" stroke="#121212"/>
<path d="M20.2647 32.9802H15.7363V35.3576H20.2647V32.9802Z" stroke="#121212"/>
<path d="M13.0186 32.9802H8.49023V35.3576H13.0186V32.9802Z" stroke="#121212"/>
<path d="M5.77447 32.9802H1.24609V35.3576H5.77447V32.9802Z" stroke="#121212"/>
<path d="M34.753 0.642578H30.2246V3.01994H34.753V0.642578Z" stroke="#121212"/>
<path d="M27.5088 0.642578H22.9805V3.01994H27.5088V0.642578Z" stroke="#121212"/>
<path d="M20.2647 0.642578H15.7363V3.01994H20.2647V0.642578Z" stroke="#121212"/>
<path d="M13.0186 0.642578H8.49023V3.01994H13.0186V0.642578Z" stroke="#121212"/>
<path d="M5.77447 0.642578H1.24609V3.01994H5.77447V0.642578Z" stroke="#121212"/>
<path d="M12.5648 21.5085C12.5648 21.5085 11.2136 24.464 14.1933 27.9624C14.4708 28.284 14.2293 28.7766 13.7978 28.7766H10.6074C10.366 28.7766 10.1502 28.651 10.032 28.4449C9.44636 27.3994 7.67906 24.3 9.17404 21.269" fill="#121212"/>
<path d="M12.5648 21.5085C12.5648 21.5085 11.2136 24.464 14.1933 27.9624C14.4708 28.284 14.2293 28.7766 13.7978 28.7766H10.6074C10.366 28.7766 10.1502 28.651 10.032 28.4449C9.44636 27.3994 7.67906 24.3 9.17404 21.269" stroke="#121212" stroke-width="0.71"/>
<path d="M15.7129 13.2778V21.6685L26.0648 27.5494C26.9176 28.047 28.0016 27.4439 28.0016 26.4687V8.47927C28.0016 7.50918 26.9227 6.90601 26.0648 7.3986L15.7129 13.2778Z" stroke="#121212" stroke-width="0.71"/>
<path d="M7.65258 13.4555C6.46583 13.4555 5.5 14.4004 5.5 15.5615V19.3866C5.5 20.5477 6.46583 21.4927 7.65258 21.4927H14.958V13.4504H7.65258V13.4555Z" stroke="#121212" stroke-width="0.71"/>
<path d="M28.543 13.998V20.9596C29.7194 20.2258 30.5003 18.944 30.5003 17.4813C30.5003 16.0187 29.7194 14.7269 28.543 13.998Z" fill="#121212" stroke="#121212" stroke-width="0.71"/>
</g>
<defs>
<clipPath id="clip0_143_120">
<rect width="36" height="36" fill="white"/>
</clipPath>
</defs>
</svg>
