<?xml version="1.0" encoding="UTF-8"?>
<svg xmlns="http://www.w3.org/2000/svg" id="outline" viewBox="0 0 512 512" width="512" height="512"><path d="M368,176a111.447,111.447,0,0,0-24-69.206V67.313l21.657-21.656A8,8,0,0,0,368,40V16H352V36.687L330.343,58.343A8,8,0,0,0,328,64V90.283a112.3,112.3,0,0,0-23.665-15.305l5.322-5.321A8,8,0,0,0,312,64V48H296V60.687l-7.984,7.983A111.291,111.291,0,0,0,264,64.289V16H248V64.289a111.291,111.291,0,0,0-24.016,4.381L216,60.687V48H200V64a8,8,0,0,0,2.343,5.657l5.322,5.321A112.3,112.3,0,0,0,184,90.283V80a8,8,0,0,0-2.343-5.657L160,52.687V16H144V56a8,8,0,0,0,2.343,5.657L168,83.313v23.481A111.98,111.98,0,1,0,368,176ZM256,272a96,96,0,1,1,96-96A96.108,96.108,0,0,1,256,272Z"/><path d="M256,96a80.225,80.225,0,0,0-36.686,8.891L226.66,119.1A63.29,63.29,0,0,1,256,112a64,64,0,1,1-43.442,17l-10.864-11.746A80,80,0,1,0,256,96Z"/><path d="M220.422,207.155l32,16a8,8,0,0,0,7.156,0l32-16A8,8,0,0,0,296,200V152a8,8,0,0,0-4.422-7.155l-32-16a8,8,0,0,0-7.156,0l-32,16A8,8,0,0,0,216,152v48A8,8,0,0,0,220.422,207.155ZM232,164.944l16,8v30.112l-16-8Zm32,38.112V172.944l16-8v30.112Zm-8-58.112L270.111,152,256,159.056,241.889,152Z"/><path d="M85.886,208H136V192H85.886A29.92,29.92,0,0,0,56,221.886V224H54.991A31.027,31.027,0,0,0,24,254.991V465.009A31.027,31.027,0,0,0,54.991,496H393.009A31.039,31.039,0,0,0,423.2,472h1.018A31.824,31.824,0,0,0,456,440.213V400h8.266A23.761,23.761,0,0,0,488,376.266V311.542A23.569,23.569,0,0,0,464.458,288H456V223.631A31.666,31.666,0,0,0,424.369,192H376v16h48.369A15.649,15.649,0,0,1,440,223.631V320H384a40,40,0,0,0,0,80h24v65.009A15.008,15.008,0,0,1,393.009,480h-253.7l24-24H216V440H160a8,8,0,0,0-5.657,2.343L116.687,480h-61.7A15.008,15.008,0,0,1,40,465.009V456H88a8,8,0,0,0,5.657-2.343L139.314,408h94.062a24,24,0,1,0,0-16H136a8,8,0,0,0-5.657,2.343L84.686,440H40V408H72a8,8,0,0,0,5.657-2.343L115.313,368H184V352H112a8,8,0,0,0-5.657,2.343L68.687,392H40V376H64a8,8,0,0,0,8-8V344H56v16H40V254.991A15.008,15.008,0,0,1,54.991,240H88v80a8,8,0,0,0,8,8h32V312H104V240h16v24a8,8,0,0,0,2.343,5.657l48,48A8,8,0,0,0,176,320h57.376a24,24,0,0,0,45.248,0H328a8,8,0,0,0,5.657-2.343l48-48A8,8,0,0,0,384,264V240h9.009A15.008,15.008,0,0,1,408,254.991v49.265h16V254.991A31.027,31.027,0,0,0,393.009,224H360v16h8v20.686L324.686,304H278.624a24,24,0,0,0-45.248,0H179.314L136,260.686V240h8V224H72v-2.114A13.9,13.9,0,0,1,85.886,208ZM456,304h8.458A7.551,7.551,0,0,1,472,311.542V320H456Zm-96,56a24.027,24.027,0,0,1,24-24h88v40.266A7.742,7.742,0,0,1,464.266,384H384A24.027,24.027,0,0,1,360,360Zm80,40v40.213A15.8,15.8,0,0,1,424.213,456H424V400Zm-184-8a8,8,0,1,1-8,8A8.009,8.009,0,0,1,256,392Zm0-88a8,8,0,1,1-8,8A8.009,8.009,0,0,1,256,304Z"/><rect x="296" y="16" width="16" height="16"/><rect x="200" y="16" width="16" height="16"/><path d="M388,348a12,12,0,1,0,12,12A12.013,12.013,0,0,0,388,348Z"/><rect x="200" y="352" width="16" height="16"/><rect x="232" y="440" width="16" height="16"/><rect x="144" y="312" width="16" height="16"/><rect x="56" y="280" width="16" height="16"/><rect x="56" y="312" width="16" height="16"/></svg>
