<?xml version="1.0" encoding="UTF-8"?>
<svg xmlns="http://www.w3.org/2000/svg" viewBox="0 0 64 64" width="512" height="512"><g id="Layer_15" data-name="Layer 15"><path d="M27,26a1,1,0,0,1-.832-.445L24,22.3V25a1,1,0,0,1-2,0V19a1,1,0,0,1,1.832-.555L26,21.7V19a1,1,0,0,1,2,0v6a1,1,0,0,1-1,1Z"/><path d="M34,20a1,1,0,0,0,0-2H31a1,1,0,0,0-1,1v6a1,1,0,0,0,2,0V23h2a1,1,0,0,0,0-2H32V20Z"/><path d="M41,18H37a1,1,0,0,0,0,2h1v5a1,1,0,0,0,2,0V20h1a1,1,0,0,0,0-2Z"/><path d="M32,42A20,20,0,1,1,52,22,20.023,20.023,0,0,1,32,42ZM32,4A18,18,0,1,0,50,22,18.021,18.021,0,0,0,32,4Z"/><path d="M32,38A16,16,0,1,1,48,22,16.019,16.019,0,0,1,32,38ZM32,8A14,14,0,1,0,46,22,14.015,14.015,0,0,0,32,8Z"/><path d="M41,16.649a.992.992,0,0,1-.5-.134L32,11.608l-8.5,4.907a1,1,0,0,1-1-1.732l9-5.2a1,1,0,0,1,1,0l9,5.2a1,1,0,0,1-.5,1.866Z"/><path d="M32,34.547a1,1,0,0,1-.5-.134l-9-5.2a1,1,0,0,1,1-1.732L32,32.392l8.5-4.907a1,1,0,0,1,1,1.732l-9,5.2A1,1,0,0,1,32,34.547Z"/><path d="M47,62H35a1,1,0,0,1-1-1V50.583a9.033,9.033,0,0,1,4.448-7.764l8.84-5.182a4.006,4.006,0,0,1,3.789-.117l2.792-8.608a4.087,4.087,0,0,1,4.714-2.991A4.013,4.013,0,0,1,61.76,29.83a3.951,3.951,0,0,1-.135,1.041L57.275,47.1a4.926,4.926,0,0,1-1.514,2.451L49,55.558A3.012,3.012,0,0,0,48,57.8V61A1,1,0,0,1,47,62ZM36,60H46V57.8a5.022,5.022,0,0,1,1.673-3.736l6.763-6.012a2.94,2.94,0,0,0,.906-1.466l4.352-16.235a1.972,1.972,0,0,0,.066-.521,2,2,0,0,0-1.585-1.952,2.131,2.131,0,0,0-2.389,1.6L52.7,39c.021.032.04.064.06.1a4,4,0,0,1-1.465,5.464l-5.731,3.309a1,1,0,1,1-1-1.732l5.731-3.309a2,2,0,0,0,.732-2.732,1.9,1.9,0,0,0-.129-.2,1.124,1.124,0,0,1-.14-.168,2,2,0,0,0-2.463-.368L39.46,44.545A7.024,7.024,0,0,0,36,50.583Z"/><path d="M29,62H17a1,1,0,0,1-1-1V57.8a3.011,3.011,0,0,0-1.007-2.244L8.236,49.547a4.929,4.929,0,0,1-1.513-2.454L2.374,30.869A3.966,3.966,0,0,1,2.24,29.83a4.014,4.014,0,0,1,3.175-3.909,4.1,4.1,0,0,1,4.731,3.039l2.777,8.559a4,4,0,0,1,3.783.115l8.846,5.185A9.033,9.033,0,0,1,30,50.583V61A1,1,0,0,1,29,62ZM18,60H28V50.583a7.024,7.024,0,0,0-3.46-6.038L15.7,39.363a2,2,0,0,0-2.457.371,1.124,1.124,0,0,1-.14.168,1.909,1.909,0,0,0-.129.2,2,2,0,0,0,.732,2.731l5.731,3.309a1,1,0,1,1-1,1.732l-5.731-3.309A4,4,0,0,1,11.241,39.1c.02-.033.039-.066.059-.1L8.229,29.529a2.147,2.147,0,0,0-2.406-1.65,2.009,2.009,0,0,0-1.518,2.47L8.656,46.581a2.939,2.939,0,0,0,.906,1.468l6.762,6.013A5.022,5.022,0,0,1,18,57.8Z"/></g></svg>
