<svg id="Outline" height="512" viewBox="0 0 512 512" width="512" xmlns="http://www.w3.org/2000/svg"><path d="m495.994 72a7.981 7.981 0 0 0 -5.057-7.442l-119.966-47.985a8 8 0 0 0 -5.942 0l-119.35 47.74a8.25 8.25 0 0 0 -2.164 1.063 7.992 7.992 0 0 0 -3.509 6.624h-.006v144a8 8 0 0 0 4.252 7.067 7.757 7.757 0 0 0 .825.38l119.952 47.98a8 8 0 0 0 5.942 0l120-48a8 8 0 0 0 5.029-7.427v-144zm-127.994-39.383 98.278 39.312.181.071-98.459 39.384-98.278-39.312-.181-.072zm-112 177.966v-126.766l104 41.6v126.766l-103.872-41.548zm120 41.6v-126.767l104-41.6v126.767z"/><path d="m491.151 296.646-56-24a8.011 8.011 0 0 0 -6.3 0l-56 24a8 8 0 0 0 -4.851 7.354v24a8 8 0 0 0 8 8h24v64h-112v16h120a8 8 0 0 0 8-8v-80a8 8 0 0 0 -8-8h-24v-10.725l48-20.575 48 20.571v10.729h-24a8 8 0 0 0 -8 8v104a16.019 16.019 0 0 1 -16 16h-144v16h144a32.036 32.036 0 0 0 32-32v-96h24a8 8 0 0 0 8-8v-24a8 8 0 0 0 -4.849-7.354z"/><path d="m20.849 215.354 56 24a8.008 8.008 0 0 0 6.3 0l56-24a8 8 0 0 0 4.851-7.354v-24a8 8 0 0 0 -8-8h-24v-64h112v-16h-120a8 8 0 0 0 -8 8v80a8 8 0 0 0 8 8h24v10.725l-48 20.575-48-20.575v-10.725h24a8 8 0 0 0 8-8v-104a16.019 16.019 0 0 1 16-16h144v-16h-144a32.036 32.036 0 0 0 -32 32v96h-24a8 8 0 0 0 -8 8v24a8 8 0 0 0 4.849 7.354z"/><path d="m144 240a128 128 0 1 0 128 128 128.146 128.146 0 0 0 -128-128zm0 240a112 112 0 1 1 112-112 112.127 112.127 0 0 1 -112 112z"/><path d="m168 329.376v-9.376h-16v8h-16v-8h-16v8h-16v16h16v16h-16v16h16v16h-16v16h16v8h16v-8h16v8h16v-9.376a23.977 23.977 0 0 0 9.869-38.624 23.977 23.977 0 0 0 -9.869-38.624zm-32 14.624h24a8 8 0 0 1 0 16h-24zm24 48h-24v-16h24a8 8 0 0 1 0 16z"/><path d="m200 360h16v16h-16z"/><path d="m72 360h16v16h-16z"/></svg>