<svg id="Layer_1_1_" enable-background="new 0 0 64 64" height="512" viewBox="0 0 64 64" width="512" xmlns="http://www.w3.org/2000/svg"><path d="m30 1c-.553 0-1 .448-1 1l-.024 1.474c-.538.171-1.067.39-1.583.675l-1.05-1.049c-.391-.39-1.023-.39-1.414 0l-2.828 2.829c-.391.391-.391 1.023 0 1.414l1.025 1.062c-.262.503-.48 1.031-.644 1.595h-1.482c-.553 0-1 .448-1 1v4c0 .552.447 1 1 1l1.474.026c.172.538.391 1.065.676 1.582l-1.049 1.049c-.391.391-.391 1.023 0 1.414l2.828 2.829c.391.391 1.023.39 1.414 0l1.062-1.026c.504.262 1.033.481 1.596.644v1.482c0 .552.447 1 1 1h4c.553 0 1-.448 1-1l.024-1.474c.538-.171 1.067-.39 1.583-.675l1.05 1.049c.391.39 1.023.39 1.414 0l2.828-2.829c.391-.391.391-1.023 0-1.414l-1.025-1.062c.262-.503.48-1.031.644-1.595h1.481c.553 0 1-.448 1-1v-4c0-.552-.447-1-1-1l-1.474-.026c-.172-.538-.391-1.065-.676-1.582l1.049-1.049c.391-.391.391-1.023 0-1.414l-2.828-2.829c-.391-.391-1.023-.39-1.414 0l-1.062 1.026c-.503-.262-1.033-.481-1.595-.644v-1.482c0-.552-.447-1-1-1zm5.674 4.901c.788.41 1.734.275 2.348-.337l.343-.342 1.414 1.415-.342.341c-.613.613-.749 1.557-.338 2.349.209.403.385.826.521 1.254.27.849 1.032 1.419 1.898 1.419h.482v2h-.482c-.865 0-1.628.57-1.897 1.418-.137.43-.312.852-.521 1.254-.411.792-.275 1.737.338 2.349l.342.342-1.414 1.415-.342-.341c-.612-.614-1.558-.75-2.349-.338-.402.209-.825.384-1.255.521-.85.27-1.42 1.032-1.42 1.898v.482h-2v-.482c0-.865-.57-1.628-1.419-1.898-.43-.136-.853-.312-1.255-.521-.79-.412-1.735-.277-2.348.337l-.343.342-1.414-1.415.342-.341c.613-.613.749-1.557.338-2.349-.209-.403-.385-.826-.521-1.254-.27-.849-1.032-1.419-1.898-1.419h-.482v-2h.482c.865 0 1.628-.57 1.897-1.418.137-.43.312-.852.521-1.254.411-.792.275-1.737-.338-2.349l-.342-.342 1.414-1.415.342.341c.613.614 1.558.75 2.349.338.402-.209.825-.384 1.255-.521.85-.27 1.42-1.032 1.42-1.898v-.482h2v.482c0 .865.57 1.628 1.419 1.898.43.137.852.312 1.255.521z"/><path d="m26 13c0 3.309 2.691 6 6 6s6-2.691 6-6-2.691-6-6-6-6 2.691-6 6zm10 0c0 2.206-1.794 4-4 4s-4-1.794-4-4 1.794-4 4-4 4 1.794 4 4z"/><path d="m16 37c0 4.777 2.114 9.268 5.801 12.319 1.343 1.113 2.128 2.734 2.188 4.471-.603.549-.989 1.332-.989 2.21 0 1.654 1.346 3 3 3h.101c.465 2.279 2.484 4 4.899 4h2c2.414 0 4.434-1.721 4.899-4h.101c1.654 0 3-1.346 3-3 0-.878-.386-1.661-.988-2.21.06-1.737.845-3.357 2.188-4.47 3.686-3.052 5.8-7.543 5.8-12.32 0-.552-.447-1-1-1h-30c-.553 0-1 .448-1 1zm17 24h-2c-1.302 0-2.402-.839-2.816-2h7.631c-.413 1.161-1.513 2-2.815 2zm5-4h-12c-.552 0-1-.449-1-1s.448-1 1-1h12c.552 0 1 .449 1 1s-.448 1-1 1zm-8-11h-.865l2.865-3.438 2.865 3.438h-.865c-.553 0-1 .448-1 1v6h-2v-6c0-.552-.447-1-1-1zm15.965-8c-.271 3.801-2.074 7.323-5.041 9.779-1.601 1.326-2.608 3.193-2.858 5.227-.023 0-.044-.006-.066-.006h-3v-5h2c.388 0 .741-.225.905-.576.165-.352.111-.767-.137-1.064l-5-6c-.381-.456-1.156-.456-1.537 0l-5 6c-.248.298-.302.713-.137 1.064s.518.576.906.576h2v5h-3c-.022 0-.043.006-.065.007-.25-2.034-1.258-3.901-2.858-5.228-2.967-2.456-4.771-5.978-5.041-9.779z"/><path d="m26 26h2v6h-2z"/><path d="m36 26h2v6h-2z"/><path d="m31 28h2v6h-2z"/><path d="m49 23c0 1.654 1.346 3 3 3s3-1.346 3-3c0-1.302-.839-2.402-2-2.816v-5.184c0-.552-.447-1-1-1h-6v2h5v4.184c-1.161.414-2 1.514-2 2.816zm3-1c.552 0 1 .449 1 1s-.448 1-1 1-1-.449-1-1 .448-1 1-1z"/><path d="m46 12h13c.553 0 1-.448 1-1v-3.184c1.161-.414 2-1.514 2-2.816 0-1.654-1.346-3-3-3s-3 1.346-3 3c0 1.302.839 2.402 2 2.816v2.184h-12zm13-8c.552 0 1 .449 1 1s-.448 1-1 1-1-.449-1-1 .448-1 1-1z"/><path d="m18 16v-2h-6c-.553 0-1 .448-1 1v5.184c-1.161.414-2 1.514-2 2.816 0 1.654 1.346 3 3 3s3-1.346 3-3c0-1.302-.839-2.402-2-2.816v-4.184zm-6 8c-.552 0-1-.449-1-1s.448-1 1-1 1 .449 1 1-.448 1-1 1z"/><path d="m8 5c0-1.654-1.346-3-3-3s-3 1.346-3 3c0 1.302.839 2.402 2 2.816v3.184c0 .552.447 1 1 1h13v-2h-12v-2.184c1.161-.414 2-1.514 2-2.816zm-3 1c-.552 0-1-.449-1-1s.448-1 1-1 1 .449 1 1-.448 1-1 1z"/></svg>