<?xml version="1.0" encoding="iso-8859-1"?>
<!-- Generator: Adobe Illustrator 19.0.0, SVG Export Plug-In . SVG Version: 6.00 Build 0)  -->
<svg version="1.1" id="Layer_1" xmlns="http://www.w3.org/2000/svg" xmlns:xlink="http://www.w3.org/1999/xlink" x="0px" y="0px"
	 viewBox="0 0 295.239 295.239" style="enable-background:new 0 0 295.239 295.239;" xml:space="preserve">
<g>
	<g>
		<g>
			<path d="M271.429,119.047v-4.761h-9.524v4.762h-4.767c-7.052-9.395-17.238-15.714-28.567-18.024v-41.09L168.638,0H0v295.238
				h228.571V194.214c11.324-2.31,21.514-8.629,28.567-18.024h4.767v4.762h9.524v-4.762h23.81v-57.143H271.429z M171.429,16.258
				l40.886,40.886h-40.886V16.258z M9.524,285.714V9.524h152.381v57.143h57.143V100c-18.219,0-34.062,10.295-42.067,25.362
				c-1.143-3.224-2.457-6.386-4.095-9.405l12.11-12.11L158.057,76.91l-12.11,12.11c-4.024-2.181-8.243-3.933-12.614-5.238V66.667
				H95.238v17.114c-4.371,1.3-8.59,3.057-12.614,5.238l-12.11-12.11l-26.938,26.938l12.11,12.11
				c-2.181,4.024-3.933,8.243-5.238,12.614H33.333v38.095h17.114c1.305,4.371,3.057,8.595,5.238,12.614l-12.11,12.11l26.938,26.933
				l12.11-12.105c4.024,2.181,8.248,3.929,12.614,5.238v17.114h38.095v-17.114c4.367-1.305,8.59-3.057,12.614-5.238l12.11,12.105
				l26.938-26.933l-12.11-12.11c1.638-3.019,2.948-6.181,4.095-9.405c8.005,15.067,23.848,25.362,42.067,25.362v90.477H9.524z
				 M120,125.714l-16.429,21.905L120,169.524l7.619-5.71l-8.571-11.433h23.381c-2.276,13.49-14.01,23.81-28.143,23.81
				c-15.757,0-28.571-12.814-28.571-28.571s12.814-28.571,28.571-28.571c14.129,0,25.862,10.319,28.143,23.81h-23.381l8.571-11.429
				L120,125.714z M114.281,109.523c-21.005,0-38.095,17.09-38.095,38.095s17.09,38.095,38.095,38.095
				c19.39,0,35.41-14.571,37.767-33.333h19.619c0.162,1.614,0.4,3.2,0.719,4.762H170.7l-0.867,3.667
				c-1.4,5.914-3.738,11.552-6.952,16.757l-1.981,3.205l10.629,10.619l-13.471,13.467l-10.624-10.619l-3.205,1.981
				c-5.205,3.21-10.843,5.548-16.757,6.952l-3.662,0.867v15.01h-19.048v-15.01l-3.667-0.867c-5.914-1.405-11.552-3.743-16.757-6.952
				l-3.205-1.981L70.51,204.857l-13.472-13.467l10.624-10.624l-1.981-3.205c-3.214-5.205-5.552-10.838-6.952-16.757l-0.857-3.662
				H42.857v-19.048h15.014l0.867-3.667c1.395-5.91,3.738-11.548,6.952-16.752l1.981-3.205l-10.624-10.624l13.471-13.471L81.143,101
				l3.205-1.981c5.205-3.214,10.843-5.557,16.752-6.952l3.662-0.862V76.19h19.048v15.014l3.667,0.867
				c5.91,1.395,11.548,3.738,16.752,6.952l3.205,1.981l10.624-10.624l13.471,13.471l-10.624,10.624l1.981,3.205
				c3.214,5.205,5.557,10.843,6.952,16.752l0.862,3.662h1.686c-0.319,1.562-0.557,3.148-0.719,4.762h-19.619
				C149.691,124.094,133.672,109.523,114.281,109.523z M261.905,142.858h-29.448c-1.971-5.529-7.21-9.524-13.41-9.524
				c-7.876,0-14.286,6.41-14.286,14.286s6.41,14.286,14.286,14.286c6.2,0,11.438-3.995,13.41-9.524h29.448v14.286h-9.767v-0.001
				l-1.414,2.11c-7.105,10.61-18.943,16.938-31.676,16.938c-21.005,0-38.095-17.09-38.095-38.095s17.09-38.095,38.095-38.095
				c12.733,0,24.576,6.333,31.671,16.933l1.419,2.114h9.767V142.858z M223.81,147.62c0,2.624-2.139,4.762-4.762,4.762
				c-2.624,0-4.762-2.138-4.762-4.762c0-2.624,2.138-4.762,4.762-4.762C221.672,142.857,223.81,144.995,223.81,147.62z
				 M285.714,166.667h-14.286v-38.095h14.286V166.667z"/>
			<rect x="238.095" y="85.714" width="28.571" height="9.524"/>
			<rect x="276.19" y="85.714" width="9.524" height="9.524"/>
			<rect x="247.619" y="66.667" width="28.571" height="9.524"/>
			<rect x="285.714" y="66.667" width="9.524" height="9.524"/>
			<rect x="238.095" y="200" width="28.571" height="9.524"/>
			<rect x="276.19" y="200" width="9.524" height="9.524"/>
			<rect x="247.619" y="219.048" width="28.571" height="9.524"/>
			<rect x="285.714" y="219.048" width="9.524" height="9.524"/>
			<rect x="200" y="266.667" width="9.524" height="9.524"/>
			<rect x="180.952" y="266.667" width="9.524" height="9.524"/>
			<rect x="161.905" y="266.667" width="9.524" height="9.524"/>
			<rect x="19.048" y="19.048" width="9.524" height="9.524"/>
			<rect x="38.095" y="19.048" width="9.524" height="9.524"/>
			<rect x="57.143" y="19.048" width="9.524" height="9.524"/>
		</g>
	</g>
</g>
<g>
</g>
<g>
</g>
<g>
</g>
<g>
</g>
<g>
</g>
<g>
</g>
<g>
</g>
<g>
</g>
<g>
</g>
<g>
</g>
<g>
</g>
<g>
</g>
<g>
</g>
<g>
</g>
<g>
</g>
</svg>
