<svg id="Capa_1" enable-background="new 0 0 512 512" height="512" viewBox="0 0 512 512" width="512" xmlns="http://www.w3.org/2000/svg"><g><g><path d="m165.227 256c9.109 0 16.516 7.407 16.516 16.516h16.516c0-18.217-14.815-33.032-33.032-33.032s-33.032 14.815-33.032 33.032h16.516c0-9.109 7.408-16.516 16.516-16.516z"/><circle cx="437.677" cy="404.645" r="8.258"/><circle cx="404.645" cy="404.645" r="8.258"/><circle cx="371.613" cy="404.645" r="8.258"/><path d="m388.129 49.548v-16.516h-16.516v16.516h-16.516v115.613h16.516v16.516h16.516v-16.516c18.217 0 33.032-14.815 33.032-33.032 0-9.852-4.335-18.721-11.206-24.774 6.871-6.053 11.206-14.922 11.206-24.774 0-18.218-14.815-33.033-33.032-33.033zm0 99.097h-16.516v-33.032h16.516c9.109 0 16.516 7.407 16.516 16.516s-7.407 16.516-16.516 16.516zm0-49.548h-16.516v-33.032h16.516c9.109 0 16.516 7.407 16.516 16.516s-7.407 16.516-16.516 16.516z"/><path d="m487.226 0h-198.194c-13.659 0-24.774 11.115-24.774 24.774v123.871h-38.97c-11.644-10.248-26.863-16.516-43.553-16.516h-57.501c-68.467 0-124.193 55.701-124.234 124.16-.025 43.231 22.883 83.918 59.838 106.314l.512.306c10.455 6.268 21.777 10.802 33.519 13.618-6.904 7.383-11.214 17.218-11.214 28.102v49.557c0 31.868 25.93 57.806 57.806 57.806l57.733.008h231.226v-16.516c0-18.217-14.815-33.032-33.032-33.032h-16.516v-16.516h57.806c22.767 0 41.29-18.523 41.29-41.29v-189.936h8.258c13.659 0 24.774-11.115 24.774-24.774v-165.162c0-13.659-11.115-24.774-24.774-24.774zm-418.412 348.73c-32.281-19.357-52.323-54.776-52.298-92.424.033-59.359 48.351-107.66 107.718-107.66h57.501c27.326 0 49.548 22.222 49.548 49.548 0 4.558-3.708 8.258-8.258 8.258h-115.604c-4.55 0-8.258-3.7-8.258-8.258s3.708-8.258 8.258-8.258h8.192v-16.516h-8.192c-13.659 0-24.774 11.115-24.774 24.774l-.008 41.29c-18.217 0-33.032 14.815-33.032 33.032s14.815 33.032 33.032 33.032l.017 50.044c-4.583-1.883-9.051-4.03-13.345-6.573zm195.51 113.722h-33.032v-8.258c0-2.907-.595-5.665-1.519-8.258h18.036c9.108-.001 16.515 7.407 16.515 16.516zm-105.596-79.848c2.816.892 5.591 1.916 8.233 3.237 17.169 8.58 28.499 24.89 30.803 43.57h-32.553v-24.782c.016-8.11-2.42-15.633-6.483-22.025zm-17.077-19.249h-17.548c-.058 0-.107-.017-.157-.017s-.107.017-.165.017h-2.197c-7.589 0-15.071-1.049-22.412-2.692l-.008-71.63h-16.526c-9.109 0-16.516-7.407-16.516-16.516s7.407-16.516 16.516-16.516h16.516l.008-34.56c2.593.933 5.351 1.528 8.258 1.528h107.33v82.581h-66.048v8.258c0 20.447 13.477 38.516 32.785 43.941.025.008.05.008.083.016-7.482 3.551-15.806 5.591-24.617 5.591h-15.302zm57.641-18.581c-4.525-.776-9.01-1.709-13.329-2.923-9.546-2.684-16.846-10.323-19.572-19.786h45.931c-2.567 8.58-7.093 16.301-13.03 22.709zm-100.129 109.411v-49.557c0-13.609 11.025-24.667 24.609-24.758h.099.066.157c13.593.099 24.617 11.157 24.617 24.766l-.008 30.547-15.112 22.693 13.741 9.158 14.047-21.099h45.139c4.55 0 8.258 3.7 8.258 8.258v33.032c0 4.558-3.708 8.258-8.258 8.258l-66.065-.008c-22.767.001-41.29-18.522-41.29-41.29zm313.74 41.299h-183.131c.925-2.593 1.519-5.351 1.519-8.258v-8.258h165.095c9.11 0 16.517 7.407 16.517 16.516zm-49.548-33.032h-82.515c0-6.045-1.751-11.636-4.591-16.516h87.106zm74.322-33.033h-189.357v.05c-.173 0-.33-.05-.512-.05h-33.519c-1.875-19.646-11.462-37.318-26.574-49.548h274.738v24.774c-.001 13.659-11.117 24.774-24.776 24.774zm24.775-66.064h-258.89c16.88-13.634 27.706-34.469 27.706-57.806v-83.993c9.621-3.402 16.524-12.585 16.524-23.362 0-12.04-3.287-23.304-8.935-33.032h25.402v24.774c0 13.659 11.115 24.774 24.774 24.774h107.355v13.766c0 10.62 8.646 19.266 19.266 19.266 6.037 0 11.801-2.89 15.41-7.713l19.002-25.319h12.387v148.645zm33.032-173.42c0 4.558-3.708 8.258-8.258 8.258h-45.419l-23.957 31.934c-1.404 1.891-4.947.727-4.947-1.652v-30.282h-123.871c-4.55 0-8.258-3.7-8.258-8.258v-165.161c0-4.558 3.708-8.258 8.258-8.258h198.194c4.55 0 8.258 3.7 8.258 8.258z"/><path d="m247.742 313.806h99.097v-82.581h-99.097zm16.516-66.064h66.065v49.548h-66.065z"/><path d="m247.742 330.323h99.097v16.516h-99.097z"/><path d="m363.355 330.323h82.581v16.516h-82.581z"/><path d="m363.355 297.29h82.581v16.516h-82.581z"/><path d="m363.355 264.258h82.581v16.516h-82.581z"/></g></g></svg>