<?xml version="1.0"?>
<svg xmlns="http://www.w3.org/2000/svg" viewBox="0 0 96 96"><title/><g id="Marketing"><path d="M11,76.81a1,1,0,0,0,.71-.3L15,73.22a1,1,0,0,0,0-1.41,1,1,0,0,0-1.41,0L10.3,75.1A1,1,0,0,0,11,76.81Z"/><path d="M62.69,43.71a1,1,0,0,0,1,1h4.67a1,1,0,0,0,0-2H63.69A1,1,0,0,0,62.69,43.71Z"/><path d="M58.93,34.64a1,1,0,0,0,1.42,0l3.29-3.3a1,1,0,1,0-1.41-1.42l-3.3,3.3A1,1,0,0,0,58.93,34.64Z"/><path d="M48.86,25.21v4.67a1,1,0,0,0,2,0V25.21a1,1,0,1,0-2,0Z"/><path d="M84.92,44v.64H84.6a1,1,0,0,0,0,2h.32v2.94a1,1,0,1,0,2,0V46.62h.82a1,1,0,0,0,0-2h-.82V44a1.81,1.81,0,0,1,1.81-1.81,1,1,0,0,0,1-1C89.73,39.11,84.92,40.31,84.92,44Z"/><path d="M60.72,61.45a4.29,4.29,0,0,0,5.86-6.27l-29.06-29a4.3,4.3,0,0,0-6.08,0A4.25,4.25,0,0,0,31.25,32L17.88,58.53a4.6,4.6,0,0,0-5.42,5.15c-7.12,7.13-6.82,6.78-7.37,7.48A9,9,0,0,0,4,80.46L2.33,82.11a4.6,4.6,0,0,0-.5,6A17,17,0,0,0,4,90.38a4.67,4.67,0,0,0,6.58,0l1.65-1.65A9.05,9.05,0,0,0,22.36,86.9l18,8.5a6.38,6.38,0,0,0,7.21-1.25,4.63,4.63,0,0,0-1.29-7.45l-7.1-3.35,1.53-1.53a3.94,3.94,0,0,0,0-5.53l-3.18-3.17ZM40,69.66l-4.53-4.53,11-5.56L51,64.09ZM32.85,27.54a2.29,2.29,0,0,1,3.25,0L65.16,56.6a2.26,2.26,0,0,1,.68,1.63,2.31,2.31,0,0,1-3.93,1.62L32.85,30.79A2.29,2.29,0,0,1,32.85,27.54Zm-.13,6L59.21,60l-6.3,3.17-5.5-5.5a1,1,0,0,0-1.16-.19L33.33,64a1,1,0,0,0-.26,1.6l5,5-4.64,2.34-13.7-13.7ZM15.18,61.22a2.64,2.64,0,0,1,3.73,0L31.49,73.8a2.64,2.64,0,0,1-3.72,3.74C27.65,77.42,15.84,65.62,15.18,65A2.63,2.63,0,0,1,15.18,61.22Zm25.47,25-.28.29a2.52,2.52,0,0,1-2.84.49l-10.39-4.9,1.53-1.53ZM13.18,65.79,21.43,74,15.48,80c-5.66,5.68-13.84-2.63-8.23-8.23ZM10.47,87.68,9.18,89a2.66,2.66,0,0,1-3.75,0c-1.87-1.87-1.79-1.77-1.94-2a2.62,2.62,0,0,1,.26-3.43L5,82.23c.49.69,1.06,1.2,4.51,4.65C9.8,87.13,10.3,87.55,10.47,87.68Zm2.07-1A16.36,16.36,0,0,1,9,83.52a7.39,7.39,0,0,0,5.91-.64c1.5-.85,1.82-1.35,7.91-7.44l4.08,4.08-6,5.94A7.08,7.08,0,0,1,12.54,86.64Zm34.38,3.79c.46,2.63-3.05,4.41-5.68,3.17L23.86,85.4l1.78-1.77c11.82,5.57,11.59,5.63,13,5.63,2,0,3-1.16,4-2.11l2.89,1.35A2.6,2.6,0,0,1,46.92,90.43ZM39.32,77.7a1.92,1.92,0,0,1,0,2.7l-2,2-5.6-2.63a4.69,4.69,0,0,0,2.52-4.76c.64-.63.31-.41,1.47-1Z"/><path d="M78.07,75.22H68.51l-7.68-7.8a1,1,0,0,0-1.71.7v7.1H56.46a2.94,2.94,0,0,0-2.94,2.94v9.42a2.94,2.94,0,0,0,2.94,2.94H78.07A2.94,2.94,0,0,0,81,87.58V78.16A2.94,2.94,0,0,0,78.07,75.22ZM79,87.58a.94.94,0,0,1-.94.94H56.46a.94.94,0,0,1-.94-.94V78.16a.94.94,0,0,1,.94-.94h3.66a1,1,0,0,0,1-1V70.56l6.26,6.36a1,1,0,0,0,.71.3h10a.94.94,0,0,1,.94.94Z"/><path d="M6.19,36.78l7.68,7.79a1,1,0,0,0,1.71-.7V36.78h2.66a3,3,0,0,0,2.94-3V24.42a2.94,2.94,0,0,0-2.94-2.94H2.94A2.94,2.94,0,0,0,0,24.42v9.41a3,3,0,0,0,2.94,3ZM2,33.83V24.42a.94.94,0,0,1,.94-.94h15.3a.94.94,0,0,1,.94.94v9.41a1,1,0,0,1-.94,1H14.58a1,1,0,0,0-1,1v5.65L7.32,35.08a1,1,0,0,0-.71-.3H2.94A1,1,0,0,1,2,33.83Z"/><path d="M93.08,36H79.83A2.92,2.92,0,0,0,76.91,39V52.2a2.93,2.93,0,0,0,2.92,2.93H93.08A2.93,2.93,0,0,0,96,52.2V39A2.92,2.92,0,0,0,93.08,36ZM94,52.2a.93.93,0,0,1-.92.93H79.83a.93.93,0,0,1-.92-.93V39a.92.92,0,0,1,.92-.92H93.08A.92.92,0,0,1,94,39Z"/><path d="M45.43,19.08H58.67a2.93,2.93,0,0,0,2.92-2.93V2.91A2.92,2.92,0,0,0,58.67,0H45.43A2.93,2.93,0,0,0,42.5,2.91V16.15A2.94,2.94,0,0,0,45.43,19.08ZM44.5,2.91A.93.93,0,0,1,45.43,2H58.67a.92.92,0,0,1,.92.92V16.15a.93.93,0,0,1-.92.93H45.43a.93.93,0,0,1-.93-.93Z"/><path d="M49.67,14l5.81-3.58a1,1,0,0,0,0-1.7L49.67,5.11A1,1,0,0,0,48.14,6v7.15A1,1,0,0,0,49.67,14Zm.47-6.21L53,9.53l-2.9,1.79Z"/><path d="M72.75,27.8H86a2.92,2.92,0,0,0,2.92-2.92V11.64A2.93,2.93,0,0,0,86,8.71H72.75a2.93,2.93,0,0,0-2.92,2.93V24.88A2.92,2.92,0,0,0,72.75,27.8Zm-.92-16.16a.93.93,0,0,1,.92-.93H86a.93.93,0,0,1,.92.93V24.88a.92.92,0,0,1-.92.92H72.75a.92.92,0,0,1-.92-.92Z"/><path d="M79.38,23.57a5.31,5.31,0,1,0-5.31-5.31A5.32,5.32,0,0,0,79.38,23.57Zm0-8.62a3.31,3.31,0,1,1-3.31,3.31A3.31,3.31,0,0,1,79.38,15Z"/><path d="M76.34,79.51h-18a1,1,0,0,0,0,2h18a1,1,0,0,0,0-2Z"/><path d="M76.34,84.34h-18a1,1,0,0,0,0,2h18a1,1,0,0,0,0-2Z"/><path d="M5.25,27.59H15.93a1,1,0,0,0,0-2H5.25a1,1,0,0,0,0,2Z"/><path d="M5.25,32.42H15.93a1,1,0,0,0,0-2H5.25a1,1,0,0,0,0,2Z"/></g></svg>
