<svg xmlns="http://www.w3.org/2000/svg" width="103.762" height="103.761" id="google-shopping"><g data-name="google shopping" transform="translate(-.381 .38)"><path fill="#4285f4" fill-rule="evenodd" d="M83.761 27.413A7.411 7.411 0 1 0 76.35 20a7.412 7.412 0 0 0 7.411 7.413Zm-52.505-2.262L53.993 2.414A9.574 9.574 0 0 1 60.785-.38h33.722a9.6 9.6 0 0 1 9.634 9.635v33.722a9.419 9.419 0 0 1-2.842 6.793l-22.7 22.724Z" data-name="Path 210"></path><path fill="#34a853" fill-rule="evenodd" d="m78.6 72.494-28.021 28.045a9.819 9.819 0 0 1-6.841 2.842 9.617 9.617 0 0 1-6.793-2.842L3.223 66.817a9.42 9.42 0 0 1-2.842-6.793 9.644 9.644 0 0 1 2.842-6.841l28.032-28.032Z" data-name="Path 211"></path><path fill="#fbbc05" fill-rule="evenodd" d="M19.588 83.181 3.223 66.816a9.418 9.418 0 0 1-2.842-6.792 9.645 9.645 0 0 1 2.842-6.841l28.032-28.032 23.181 23.182Z" data-name="Path 212"></path><path fill="#ea4335" fill-rule="evenodd" d="M100.816 1.954A9.6 9.6 0 0 0 94.508-.38H60.785a9.574 9.574 0 0 0-6.793 2.794L31.256 25.151l23.185 23.181 23.61-23.61a7.412 7.412 0 0 1 10.435-10.435Z" data-name="Path 213"></path><circle cx="15.055" cy="15.055" r="15.055" fill="#4285f4" data-name="Ellipse 29" transform="translate(39.369 35.905)"></circle><path fill="#fff" fill-rule="evenodd" d="M74.934 46.531H54.912v8.591h11.525c-1.074 5.458-5.567 8.591-11.525 8.591a13.146 13.146 0 0 1 0-26.277 12.171 12.171 0 0 1 7.911 2.931l6.251-6.468a20.986 20.986 0 0 0-14.162-5.559c-11.916 0-21.488 9.9-21.488 22.235S42.996 72.81 54.912 72.81c10.744 0 20.511-8.085 20.511-22.235a19.051 19.051 0 0 0-.489-4.044Z" data-name="Path 214"></path></g></svg>